<?xml version="1.0" encoding="utf-8" standalone="no"?>
<!DOCTYPE svg PUBLIC "-//W3C//DTD SVG 1.1//EN"
  "http://www.w3.org/Graphics/SVG/1.1/DTD/svg11.dtd">
<!-- Created with matplotlib (https://matplotlib.org/) -->
<svg height="720pt" version="1.1" viewBox="0 0 1728 720" width="1728pt" xmlns="http://www.w3.org/2000/svg" xmlns:xlink="http://www.w3.org/1999/xlink">
 <defs>
  <style type="text/css">
*{stroke-linecap:butt;stroke-linejoin:round;}
  </style>
 </defs>
 <g id="figure_1">
  <g id="patch_1">
   <path d="M 0 720 
L 1728 720 
L 1728 0 
L 0 0 
z
" style="fill:#ffffff;"/>
  </g>
  <g id="axes_1">
   <g id="patch_2">
    <path d="M 216 630 
L 1555.2 630 
L 1555.2 86.4 
L 216 86.4 
z
" style="fill:#e5e5e5;"/>
   </g>
   <g id="matplotlib.axis_1">
    <g id="xtick_1">
     <g id="line2d_1">
      <path clip-path="url(#p1e07df5ade)" d="M 417.348252 630 
L 417.348252 86.4 
" style="fill:none;stroke:#ffffff;stroke-linecap:square;stroke-width:0.8;"/>
     </g>
     <g id="line2d_2">
      <defs>
       <path d="M 0 0 
L 0 3.5 
" id="ma90d16a1d6" style="stroke:#555555;stroke-width:0.8;"/>
      </defs>
      <g>
       <use style="fill:#555555;stroke:#555555;stroke-width:0.8;" x="417.348252" xlink:href="#ma90d16a1d6" y="630"/>
      </g>
     </g>
     <g id="text_1">
      <!-- 01-06 -->
      <defs>
       <path d="M 31.78125 66.40625 
Q 24.171875 66.40625 20.328125 58.90625 
Q 16.5 51.421875 16.5 36.375 
Q 16.5 21.390625 20.328125 13.890625 
Q 24.171875 6.390625 31.78125 6.390625 
Q 39.453125 6.390625 43.28125 13.890625 
Q 47.125 21.390625 47.125 36.375 
Q 47.125 51.421875 43.28125 58.90625 
Q 39.453125 66.40625 31.78125 66.40625 
z
M 31.78125 74.21875 
Q 44.046875 74.21875 50.515625 64.515625 
Q 56.984375 54.828125 56.984375 36.375 
Q 56.984375 17.96875 50.515625 8.265625 
Q 44.046875 -1.421875 31.78125 -1.421875 
Q 19.53125 -1.421875 13.0625 8.265625 
Q 6.59375 17.96875 6.59375 36.375 
Q 6.59375 54.828125 13.0625 64.515625 
Q 19.53125 74.21875 31.78125 74.21875 
z
" id="DejaVuSans-48"/>
       <path d="M 12.40625 8.296875 
L 28.515625 8.296875 
L 28.515625 63.921875 
L 10.984375 60.40625 
L 10.984375 69.390625 
L 28.421875 72.90625 
L 38.28125 72.90625 
L 38.28125 8.296875 
L 54.390625 8.296875 
L 54.390625 0 
L 12.40625 0 
z
" id="DejaVuSans-49"/>
       <path d="M 4.890625 31.390625 
L 31.203125 31.390625 
L 31.203125 23.390625 
L 4.890625 23.390625 
z
" id="DejaVuSans-45"/>
       <path d="M 33.015625 40.375 
Q 26.375 40.375 22.484375 35.828125 
Q 18.609375 31.296875 18.609375 23.390625 
Q 18.609375 15.53125 22.484375 10.953125 
Q 26.375 6.390625 33.015625 6.390625 
Q 39.65625 6.390625 43.53125 10.953125 
Q 47.40625 15.53125 47.40625 23.390625 
Q 47.40625 31.296875 43.53125 35.828125 
Q 39.65625 40.375 33.015625 40.375 
z
M 52.59375 71.296875 
L 52.59375 62.3125 
Q 48.875 64.0625 45.09375 64.984375 
Q 41.3125 65.921875 37.59375 65.921875 
Q 27.828125 65.921875 22.671875 59.328125 
Q 17.53125 52.734375 16.796875 39.40625 
Q 19.671875 43.65625 24.015625 45.921875 
Q 28.375 48.1875 33.59375 48.1875 
Q 44.578125 48.1875 50.953125 41.515625 
Q 57.328125 34.859375 57.328125 23.390625 
Q 57.328125 12.15625 50.6875 5.359375 
Q 44.046875 -1.421875 33.015625 -1.421875 
Q 20.359375 -1.421875 13.671875 8.265625 
Q 6.984375 17.96875 6.984375 36.375 
Q 6.984375 53.65625 15.1875 63.9375 
Q 23.390625 74.21875 37.203125 74.21875 
Q 40.921875 74.21875 44.703125 73.484375 
Q 48.484375 72.75 52.59375 71.296875 
z
" id="DejaVuSans-54"/>
      </defs>
      <g style="fill:#555555;" transform="translate(402.819345 644.598438)scale(0.1 -0.1)">
       <use xlink:href="#DejaVuSans-48"/>
       <use x="63.623047" xlink:href="#DejaVuSans-49"/>
       <use x="127.246094" xlink:href="#DejaVuSans-45"/>
       <use x="163.330078" xlink:href="#DejaVuSans-48"/>
       <use x="226.953125" xlink:href="#DejaVuSans-54"/>
      </g>
     </g>
    </g>
    <g id="xtick_2">
     <g id="line2d_3">
      <path clip-path="url(#p1e07df5ade)" d="M 581.236364 630 
L 581.236364 86.4 
" style="fill:none;stroke:#ffffff;stroke-linecap:square;stroke-width:0.8;"/>
     </g>
     <g id="line2d_4">
      <g>
       <use style="fill:#555555;stroke:#555555;stroke-width:0.8;" x="581.236364" xlink:href="#ma90d16a1d6" y="630"/>
      </g>
     </g>
     <g id="text_2">
      <!-- 08-06 -->
      <defs>
       <path d="M 31.78125 34.625 
Q 24.75 34.625 20.71875 30.859375 
Q 16.703125 27.09375 16.703125 20.515625 
Q 16.703125 13.921875 20.71875 10.15625 
Q 24.75 6.390625 31.78125 6.390625 
Q 38.8125 6.390625 42.859375 10.171875 
Q 46.921875 13.96875 46.921875 20.515625 
Q 46.921875 27.09375 42.890625 30.859375 
Q 38.875 34.625 31.78125 34.625 
z
M 21.921875 38.8125 
Q 15.578125 40.375 12.03125 44.71875 
Q 8.5 49.078125 8.5 55.328125 
Q 8.5 64.0625 14.71875 69.140625 
Q 20.953125 74.21875 31.78125 74.21875 
Q 42.671875 74.21875 48.875 69.140625 
Q 55.078125 64.0625 55.078125 55.328125 
Q 55.078125 49.078125 51.53125 44.71875 
Q 48 40.375 41.703125 38.8125 
Q 48.828125 37.15625 52.796875 32.3125 
Q 56.78125 27.484375 56.78125 20.515625 
Q 56.78125 9.90625 50.3125 4.234375 
Q 43.84375 -1.421875 31.78125 -1.421875 
Q 19.734375 -1.421875 13.25 4.234375 
Q 6.78125 9.90625 6.78125 20.515625 
Q 6.78125 27.484375 10.78125 32.3125 
Q 14.796875 37.15625 21.921875 38.8125 
z
M 18.3125 54.390625 
Q 18.3125 48.734375 21.84375 45.5625 
Q 25.390625 42.390625 31.78125 42.390625 
Q 38.140625 42.390625 41.71875 45.5625 
Q 45.3125 48.734375 45.3125 54.390625 
Q 45.3125 60.0625 41.71875 63.234375 
Q 38.140625 66.40625 31.78125 66.40625 
Q 25.390625 66.40625 21.84375 63.234375 
Q 18.3125 60.0625 18.3125 54.390625 
z
" id="DejaVuSans-56"/>
      </defs>
      <g style="fill:#555555;" transform="translate(566.707457 644.598438)scale(0.1 -0.1)">
       <use xlink:href="#DejaVuSans-48"/>
       <use x="63.623047" xlink:href="#DejaVuSans-56"/>
       <use x="127.246094" xlink:href="#DejaVuSans-45"/>
       <use x="163.330078" xlink:href="#DejaVuSans-48"/>
       <use x="226.953125" xlink:href="#DejaVuSans-54"/>
      </g>
     </g>
    </g>
    <g id="xtick_3">
     <g id="line2d_5">
      <path clip-path="url(#p1e07df5ade)" d="M 745.124476 630 
L 745.124476 86.4 
" style="fill:none;stroke:#ffffff;stroke-linecap:square;stroke-width:0.8;"/>
     </g>
     <g id="line2d_6">
      <g>
       <use style="fill:#555555;stroke:#555555;stroke-width:0.8;" x="745.124476" xlink:href="#ma90d16a1d6" y="630"/>
      </g>
     </g>
     <g id="text_3">
      <!-- 15-06 -->
      <defs>
       <path d="M 10.796875 72.90625 
L 49.515625 72.90625 
L 49.515625 64.59375 
L 19.828125 64.59375 
L 19.828125 46.734375 
Q 21.96875 47.46875 24.109375 47.828125 
Q 26.265625 48.1875 28.421875 48.1875 
Q 40.625 48.1875 47.75 41.5 
Q 54.890625 34.8125 54.890625 23.390625 
Q 54.890625 11.625 47.5625 5.09375 
Q 40.234375 -1.421875 26.90625 -1.421875 
Q 22.3125 -1.421875 17.546875 -0.640625 
Q 12.796875 0.140625 7.71875 1.703125 
L 7.71875 11.625 
Q 12.109375 9.234375 16.796875 8.0625 
Q 21.484375 6.890625 26.703125 6.890625 
Q 35.15625 6.890625 40.078125 11.328125 
Q 45.015625 15.765625 45.015625 23.390625 
Q 45.015625 31 40.078125 35.4375 
Q 35.15625 39.890625 26.703125 39.890625 
Q 22.75 39.890625 18.8125 39.015625 
Q 14.890625 38.140625 10.796875 36.28125 
z
" id="DejaVuSans-53"/>
      </defs>
      <g style="fill:#555555;" transform="translate(730.595569 644.598438)scale(0.1 -0.1)">
       <use xlink:href="#DejaVuSans-49"/>
       <use x="63.623047" xlink:href="#DejaVuSans-53"/>
       <use x="127.246094" xlink:href="#DejaVuSans-45"/>
       <use x="163.330078" xlink:href="#DejaVuSans-48"/>
       <use x="226.953125" xlink:href="#DejaVuSans-54"/>
      </g>
     </g>
    </g>
    <g id="xtick_4">
     <g id="line2d_7">
      <path clip-path="url(#p1e07df5ade)" d="M 909.012587 630 
L 909.012587 86.4 
" style="fill:none;stroke:#ffffff;stroke-linecap:square;stroke-width:0.8;"/>
     </g>
     <g id="line2d_8">
      <g>
       <use style="fill:#555555;stroke:#555555;stroke-width:0.8;" x="909.012587" xlink:href="#ma90d16a1d6" y="630"/>
      </g>
     </g>
     <g id="text_4">
      <!-- 22-06 -->
      <defs>
       <path d="M 19.1875 8.296875 
L 53.609375 8.296875 
L 53.609375 0 
L 7.328125 0 
L 7.328125 8.296875 
Q 12.9375 14.109375 22.625 23.890625 
Q 32.328125 33.6875 34.8125 36.53125 
Q 39.546875 41.84375 41.421875 45.53125 
Q 43.3125 49.21875 43.3125 52.78125 
Q 43.3125 58.59375 39.234375 62.25 
Q 35.15625 65.921875 28.609375 65.921875 
Q 23.96875 65.921875 18.8125 64.3125 
Q 13.671875 62.703125 7.8125 59.421875 
L 7.8125 69.390625 
Q 13.765625 71.78125 18.9375 73 
Q 24.125 74.21875 28.421875 74.21875 
Q 39.75 74.21875 46.484375 68.546875 
Q 53.21875 62.890625 53.21875 53.421875 
Q 53.21875 48.921875 51.53125 44.890625 
Q 49.859375 40.875 45.40625 35.40625 
Q 44.1875 33.984375 37.640625 27.21875 
Q 31.109375 20.453125 19.1875 8.296875 
z
" id="DejaVuSans-50"/>
      </defs>
      <g style="fill:#555555;" transform="translate(894.483681 644.598438)scale(0.1 -0.1)">
       <use xlink:href="#DejaVuSans-50"/>
       <use x="63.623047" xlink:href="#DejaVuSans-50"/>
       <use x="127.246094" xlink:href="#DejaVuSans-45"/>
       <use x="163.330078" xlink:href="#DejaVuSans-48"/>
       <use x="226.953125" xlink:href="#DejaVuSans-54"/>
      </g>
     </g>
    </g>
    <g id="xtick_5">
     <g id="line2d_9">
      <path clip-path="url(#p1e07df5ade)" d="M 1119.725874 630 
L 1119.725874 86.4 
" style="fill:none;stroke:#ffffff;stroke-linecap:square;stroke-width:0.8;"/>
     </g>
     <g id="line2d_10">
      <g>
       <use style="fill:#555555;stroke:#555555;stroke-width:0.8;" x="1119.725874" xlink:href="#ma90d16a1d6" y="630"/>
      </g>
     </g>
     <g id="text_5">
      <!-- 01-07 -->
      <defs>
       <path d="M 8.203125 72.90625 
L 55.078125 72.90625 
L 55.078125 68.703125 
L 28.609375 0 
L 18.3125 0 
L 43.21875 64.59375 
L 8.203125 64.59375 
z
" id="DejaVuSans-55"/>
      </defs>
      <g style="fill:#555555;" transform="translate(1105.196968 644.598438)scale(0.1 -0.1)">
       <use xlink:href="#DejaVuSans-48"/>
       <use x="63.623047" xlink:href="#DejaVuSans-49"/>
       <use x="127.246094" xlink:href="#DejaVuSans-45"/>
       <use x="163.330078" xlink:href="#DejaVuSans-48"/>
       <use x="226.953125" xlink:href="#DejaVuSans-55"/>
      </g>
     </g>
    </g>
    <g id="xtick_6">
     <g id="line2d_11">
      <path clip-path="url(#p1e07df5ade)" d="M 1283.613986 630 
L 1283.613986 86.4 
" style="fill:none;stroke:#ffffff;stroke-linecap:square;stroke-width:0.8;"/>
     </g>
     <g id="line2d_12">
      <g>
       <use style="fill:#555555;stroke:#555555;stroke-width:0.8;" x="1283.613986" xlink:href="#ma90d16a1d6" y="630"/>
      </g>
     </g>
     <g id="text_6">
      <!-- 08-07 -->
      <g style="fill:#555555;" transform="translate(1269.08508 644.598438)scale(0.1 -0.1)">
       <use xlink:href="#DejaVuSans-48"/>
       <use x="63.623047" xlink:href="#DejaVuSans-56"/>
       <use x="127.246094" xlink:href="#DejaVuSans-45"/>
       <use x="163.330078" xlink:href="#DejaVuSans-48"/>
       <use x="226.953125" xlink:href="#DejaVuSans-55"/>
      </g>
     </g>
    </g>
    <g id="xtick_7">
     <g id="line2d_13">
      <path clip-path="url(#p1e07df5ade)" d="M 1447.502098 630 
L 1447.502098 86.4 
" style="fill:none;stroke:#ffffff;stroke-linecap:square;stroke-width:0.8;"/>
     </g>
     <g id="line2d_14">
      <g>
       <use style="fill:#555555;stroke:#555555;stroke-width:0.8;" x="1447.502098" xlink:href="#ma90d16a1d6" y="630"/>
      </g>
     </g>
     <g id="text_7">
      <!-- 15-07 -->
      <g style="fill:#555555;" transform="translate(1432.973192 644.598438)scale(0.1 -0.1)">
       <use xlink:href="#DejaVuSans-49"/>
       <use x="63.623047" xlink:href="#DejaVuSans-53"/>
       <use x="127.246094" xlink:href="#DejaVuSans-45"/>
       <use x="163.330078" xlink:href="#DejaVuSans-48"/>
       <use x="226.953125" xlink:href="#DejaVuSans-55"/>
      </g>
     </g>
    </g>
    <g id="text_8">
     <!-- Data -->
     <defs>
      <path d="M 19.671875 64.796875 
L 19.671875 8.109375 
L 31.59375 8.109375 
Q 46.6875 8.109375 53.6875 14.9375 
Q 60.6875 21.78125 60.6875 36.53125 
Q 60.6875 51.171875 53.6875 57.984375 
Q 46.6875 64.796875 31.59375 64.796875 
z
M 9.8125 72.90625 
L 30.078125 72.90625 
Q 51.265625 72.90625 61.171875 64.09375 
Q 71.09375 55.28125 71.09375 36.53125 
Q 71.09375 17.671875 61.125 8.828125 
Q 51.171875 0 30.078125 0 
L 9.8125 0 
z
" id="DejaVuSans-68"/>
      <path d="M 34.28125 27.484375 
Q 23.390625 27.484375 19.1875 25 
Q 14.984375 22.515625 14.984375 16.5 
Q 14.984375 11.71875 18.140625 8.90625 
Q 21.296875 6.109375 26.703125 6.109375 
Q 34.1875 6.109375 38.703125 11.40625 
Q 43.21875 16.703125 43.21875 25.484375 
L 43.21875 27.484375 
z
M 52.203125 31.203125 
L 52.203125 0 
L 43.21875 0 
L 43.21875 8.296875 
Q 40.140625 3.328125 35.546875 0.953125 
Q 30.953125 -1.421875 24.3125 -1.421875 
Q 15.921875 -1.421875 10.953125 3.296875 
Q 6 8.015625 6 15.921875 
Q 6 25.140625 12.171875 29.828125 
Q 18.359375 34.515625 30.609375 34.515625 
L 43.21875 34.515625 
L 43.21875 35.40625 
Q 43.21875 41.609375 39.140625 45 
Q 35.0625 48.390625 27.6875 48.390625 
Q 23 48.390625 18.546875 47.265625 
Q 14.109375 46.140625 10.015625 43.890625 
L 10.015625 52.203125 
Q 14.9375 54.109375 19.578125 55.046875 
Q 24.21875 56 28.609375 56 
Q 40.484375 56 46.34375 49.84375 
Q 52.203125 43.703125 52.203125 31.203125 
z
" id="DejaVuSans-97"/>
      <path d="M 18.3125 70.21875 
L 18.3125 54.6875 
L 36.8125 54.6875 
L 36.8125 47.703125 
L 18.3125 47.703125 
L 18.3125 18.015625 
Q 18.3125 11.328125 20.140625 9.421875 
Q 21.96875 7.515625 27.59375 7.515625 
L 36.8125 7.515625 
L 36.8125 0 
L 27.59375 0 
Q 17.1875 0 13.234375 3.875 
Q 9.28125 7.765625 9.28125 18.015625 
L 9.28125 47.703125 
L 2.6875 47.703125 
L 2.6875 54.6875 
L 9.28125 54.6875 
L 9.28125 70.21875 
z
" id="DejaVuSans-116"/>
     </defs>
     <g style="fill:#555555;" transform="translate(871.274063 659.79625)scale(0.12 -0.12)">
      <use xlink:href="#DejaVuSans-68"/>
      <use x="77.001953" xlink:href="#DejaVuSans-97"/>
      <use x="138.28125" xlink:href="#DejaVuSans-116"/>
      <use x="177.490234" xlink:href="#DejaVuSans-97"/>
     </g>
    </g>
   </g>
   <g id="matplotlib.axis_2">
    <g id="ytick_1">
     <g id="line2d_15">
      <path clip-path="url(#p1e07df5ade)" d="M 216 603.865385 
L 1555.2 603.865385 
" style="fill:none;stroke:#ffffff;stroke-linecap:square;stroke-width:0.8;"/>
     </g>
     <g id="line2d_16">
      <defs>
       <path d="M 0 0 
L -3.5 0 
" id="m4874e04ccc" style="stroke:#555555;stroke-width:0.8;"/>
      </defs>
      <g>
       <use style="fill:#555555;stroke:#555555;stroke-width:0.8;" x="216" xlink:href="#m4874e04ccc" y="603.865385"/>
      </g>
     </g>
     <g id="text_9">
      <!-- 0 -->
      <g style="fill:#555555;" transform="translate(202.6375 607.664603)scale(0.1 -0.1)">
       <use xlink:href="#DejaVuSans-48"/>
      </g>
     </g>
    </g>
    <g id="ytick_2">
     <g id="line2d_17">
      <path clip-path="url(#p1e07df5ade)" d="M 216 499.326923 
L 1555.2 499.326923 
" style="fill:none;stroke:#ffffff;stroke-linecap:square;stroke-width:0.8;"/>
     </g>
     <g id="line2d_18">
      <g>
       <use style="fill:#555555;stroke:#555555;stroke-width:0.8;" x="216" xlink:href="#m4874e04ccc" y="499.326923"/>
      </g>
     </g>
     <g id="text_10">
      <!-- 20 -->
      <g style="fill:#555555;" transform="translate(196.275 503.126142)scale(0.1 -0.1)">
       <use xlink:href="#DejaVuSans-50"/>
       <use x="63.623047" xlink:href="#DejaVuSans-48"/>
      </g>
     </g>
    </g>
    <g id="ytick_3">
     <g id="line2d_19">
      <path clip-path="url(#p1e07df5ade)" d="M 216 394.788462 
L 1555.2 394.788462 
" style="fill:none;stroke:#ffffff;stroke-linecap:square;stroke-width:0.8;"/>
     </g>
     <g id="line2d_20">
      <g>
       <use style="fill:#555555;stroke:#555555;stroke-width:0.8;" x="216" xlink:href="#m4874e04ccc" y="394.788462"/>
      </g>
     </g>
     <g id="text_11">
      <!-- 40 -->
      <defs>
       <path d="M 37.796875 64.3125 
L 12.890625 25.390625 
L 37.796875 25.390625 
z
M 35.203125 72.90625 
L 47.609375 72.90625 
L 47.609375 25.390625 
L 58.015625 25.390625 
L 58.015625 17.1875 
L 47.609375 17.1875 
L 47.609375 0 
L 37.796875 0 
L 37.796875 17.1875 
L 4.890625 17.1875 
L 4.890625 26.703125 
z
" id="DejaVuSans-52"/>
      </defs>
      <g style="fill:#555555;" transform="translate(196.275 398.58768)scale(0.1 -0.1)">
       <use xlink:href="#DejaVuSans-52"/>
       <use x="63.623047" xlink:href="#DejaVuSans-48"/>
      </g>
     </g>
    </g>
    <g id="ytick_4">
     <g id="line2d_21">
      <path clip-path="url(#p1e07df5ade)" d="M 216 290.25 
L 1555.2 290.25 
" style="fill:none;stroke:#ffffff;stroke-linecap:square;stroke-width:0.8;"/>
     </g>
     <g id="line2d_22">
      <g>
       <use style="fill:#555555;stroke:#555555;stroke-width:0.8;" x="216" xlink:href="#m4874e04ccc" y="290.25"/>
      </g>
     </g>
     <g id="text_12">
      <!-- 60 -->
      <g style="fill:#555555;" transform="translate(196.275 294.049219)scale(0.1 -0.1)">
       <use xlink:href="#DejaVuSans-54"/>
       <use x="63.623047" xlink:href="#DejaVuSans-48"/>
      </g>
     </g>
    </g>
    <g id="ytick_5">
     <g id="line2d_23">
      <path clip-path="url(#p1e07df5ade)" d="M 216 185.711538 
L 1555.2 185.711538 
" style="fill:none;stroke:#ffffff;stroke-linecap:square;stroke-width:0.8;"/>
     </g>
     <g id="line2d_24">
      <g>
       <use style="fill:#555555;stroke:#555555;stroke-width:0.8;" x="216" xlink:href="#m4874e04ccc" y="185.711538"/>
      </g>
     </g>
     <g id="text_13">
      <!-- 80 -->
      <g style="fill:#555555;" transform="translate(196.275 189.510757)scale(0.1 -0.1)">
       <use xlink:href="#DejaVuSans-56"/>
       <use x="63.623047" xlink:href="#DejaVuSans-48"/>
      </g>
     </g>
    </g>
    <g id="text_14">
     <!-- Número de casos -->
     <defs>
      <path d="M 9.8125 72.90625 
L 23.09375 72.90625 
L 55.421875 11.921875 
L 55.421875 72.90625 
L 64.984375 72.90625 
L 64.984375 0 
L 51.703125 0 
L 19.390625 60.984375 
L 19.390625 0 
L 9.8125 0 
z
" id="DejaVuSans-78"/>
      <path d="M 8.5 21.578125 
L 8.5 54.6875 
L 17.484375 54.6875 
L 17.484375 21.921875 
Q 17.484375 14.15625 20.5 10.265625 
Q 23.53125 6.390625 29.59375 6.390625 
Q 36.859375 6.390625 41.078125 11.03125 
Q 45.3125 15.671875 45.3125 23.6875 
L 45.3125 54.6875 
L 54.296875 54.6875 
L 54.296875 0 
L 45.3125 0 
L 45.3125 8.40625 
Q 42.046875 3.421875 37.71875 1 
Q 33.40625 -1.421875 27.6875 -1.421875 
Q 18.265625 -1.421875 13.375 4.4375 
Q 8.5 10.296875 8.5 21.578125 
z
M 31.109375 56 
z
M 37.78125 79.984375 
L 47.5 79.984375 
L 31.59375 61.625 
L 24.109375 61.625 
z
" id="DejaVuSans-250"/>
      <path d="M 52 44.1875 
Q 55.375 50.25 60.0625 53.125 
Q 64.75 56 71.09375 56 
Q 79.640625 56 84.28125 50.015625 
Q 88.921875 44.046875 88.921875 33.015625 
L 88.921875 0 
L 79.890625 0 
L 79.890625 32.71875 
Q 79.890625 40.578125 77.09375 44.375 
Q 74.3125 48.1875 68.609375 48.1875 
Q 61.625 48.1875 57.5625 43.546875 
Q 53.515625 38.921875 53.515625 30.90625 
L 53.515625 0 
L 44.484375 0 
L 44.484375 32.71875 
Q 44.484375 40.625 41.703125 44.40625 
Q 38.921875 48.1875 33.109375 48.1875 
Q 26.21875 48.1875 22.15625 43.53125 
Q 18.109375 38.875 18.109375 30.90625 
L 18.109375 0 
L 9.078125 0 
L 9.078125 54.6875 
L 18.109375 54.6875 
L 18.109375 46.1875 
Q 21.1875 51.21875 25.484375 53.609375 
Q 29.78125 56 35.6875 56 
Q 41.65625 56 45.828125 52.96875 
Q 50 49.953125 52 44.1875 
z
" id="DejaVuSans-109"/>
      <path d="M 56.203125 29.59375 
L 56.203125 25.203125 
L 14.890625 25.203125 
Q 15.484375 15.921875 20.484375 11.0625 
Q 25.484375 6.203125 34.421875 6.203125 
Q 39.59375 6.203125 44.453125 7.46875 
Q 49.3125 8.734375 54.109375 11.28125 
L 54.109375 2.78125 
Q 49.265625 0.734375 44.1875 -0.34375 
Q 39.109375 -1.421875 33.890625 -1.421875 
Q 20.796875 -1.421875 13.15625 6.1875 
Q 5.515625 13.8125 5.515625 26.8125 
Q 5.515625 40.234375 12.765625 48.109375 
Q 20.015625 56 32.328125 56 
Q 43.359375 56 49.78125 48.890625 
Q 56.203125 41.796875 56.203125 29.59375 
z
M 47.21875 32.234375 
Q 47.125 39.59375 43.09375 43.984375 
Q 39.0625 48.390625 32.421875 48.390625 
Q 24.90625 48.390625 20.390625 44.140625 
Q 15.875 39.890625 15.1875 32.171875 
z
" id="DejaVuSans-101"/>
      <path d="M 41.109375 46.296875 
Q 39.59375 47.171875 37.8125 47.578125 
Q 36.03125 48 33.890625 48 
Q 26.265625 48 22.1875 43.046875 
Q 18.109375 38.09375 18.109375 28.8125 
L 18.109375 0 
L 9.078125 0 
L 9.078125 54.6875 
L 18.109375 54.6875 
L 18.109375 46.1875 
Q 20.953125 51.171875 25.484375 53.578125 
Q 30.03125 56 36.53125 56 
Q 37.453125 56 38.578125 55.875 
Q 39.703125 55.765625 41.0625 55.515625 
z
" id="DejaVuSans-114"/>
      <path d="M 30.609375 48.390625 
Q 23.390625 48.390625 19.1875 42.75 
Q 14.984375 37.109375 14.984375 27.296875 
Q 14.984375 17.484375 19.15625 11.84375 
Q 23.34375 6.203125 30.609375 6.203125 
Q 37.796875 6.203125 41.984375 11.859375 
Q 46.1875 17.53125 46.1875 27.296875 
Q 46.1875 37.015625 41.984375 42.703125 
Q 37.796875 48.390625 30.609375 48.390625 
z
M 30.609375 56 
Q 42.328125 56 49.015625 48.375 
Q 55.71875 40.765625 55.71875 27.296875 
Q 55.71875 13.875 49.015625 6.21875 
Q 42.328125 -1.421875 30.609375 -1.421875 
Q 18.84375 -1.421875 12.171875 6.21875 
Q 5.515625 13.875 5.515625 27.296875 
Q 5.515625 40.765625 12.171875 48.375 
Q 18.84375 56 30.609375 56 
z
" id="DejaVuSans-111"/>
      <path id="DejaVuSans-32"/>
      <path d="M 45.40625 46.390625 
L 45.40625 75.984375 
L 54.390625 75.984375 
L 54.390625 0 
L 45.40625 0 
L 45.40625 8.203125 
Q 42.578125 3.328125 38.25 0.953125 
Q 33.9375 -1.421875 27.875 -1.421875 
Q 17.96875 -1.421875 11.734375 6.484375 
Q 5.515625 14.40625 5.515625 27.296875 
Q 5.515625 40.1875 11.734375 48.09375 
Q 17.96875 56 27.875 56 
Q 33.9375 56 38.25 53.625 
Q 42.578125 51.265625 45.40625 46.390625 
z
M 14.796875 27.296875 
Q 14.796875 17.390625 18.875 11.75 
Q 22.953125 6.109375 30.078125 6.109375 
Q 37.203125 6.109375 41.296875 11.75 
Q 45.40625 17.390625 45.40625 27.296875 
Q 45.40625 37.203125 41.296875 42.84375 
Q 37.203125 48.484375 30.078125 48.484375 
Q 22.953125 48.484375 18.875 42.84375 
Q 14.796875 37.203125 14.796875 27.296875 
z
" id="DejaVuSans-100"/>
      <path d="M 48.78125 52.59375 
L 48.78125 44.1875 
Q 44.96875 46.296875 41.140625 47.34375 
Q 37.3125 48.390625 33.40625 48.390625 
Q 24.65625 48.390625 19.8125 42.84375 
Q 14.984375 37.3125 14.984375 27.296875 
Q 14.984375 17.28125 19.8125 11.734375 
Q 24.65625 6.203125 33.40625 6.203125 
Q 37.3125 6.203125 41.140625 7.25 
Q 44.96875 8.296875 48.78125 10.40625 
L 48.78125 2.09375 
Q 45.015625 0.34375 40.984375 -0.53125 
Q 36.96875 -1.421875 32.421875 -1.421875 
Q 20.0625 -1.421875 12.78125 6.34375 
Q 5.515625 14.109375 5.515625 27.296875 
Q 5.515625 40.671875 12.859375 48.328125 
Q 20.21875 56 33.015625 56 
Q 37.15625 56 41.109375 55.140625 
Q 45.0625 54.296875 48.78125 52.59375 
z
" id="DejaVuSans-99"/>
      <path d="M 44.28125 53.078125 
L 44.28125 44.578125 
Q 40.484375 46.53125 36.375 47.5 
Q 32.28125 48.484375 27.875 48.484375 
Q 21.1875 48.484375 17.84375 46.4375 
Q 14.5 44.390625 14.5 40.28125 
Q 14.5 37.15625 16.890625 35.375 
Q 19.28125 33.59375 26.515625 31.984375 
L 29.59375 31.296875 
Q 39.15625 29.25 43.1875 25.515625 
Q 47.21875 21.78125 47.21875 15.09375 
Q 47.21875 7.46875 41.1875 3.015625 
Q 35.15625 -1.421875 24.609375 -1.421875 
Q 20.21875 -1.421875 15.453125 -0.5625 
Q 10.6875 0.296875 5.421875 2 
L 5.421875 11.28125 
Q 10.40625 8.6875 15.234375 7.390625 
Q 20.0625 6.109375 24.8125 6.109375 
Q 31.15625 6.109375 34.5625 8.28125 
Q 37.984375 10.453125 37.984375 14.40625 
Q 37.984375 18.0625 35.515625 20.015625 
Q 33.0625 21.96875 24.703125 23.78125 
L 21.578125 24.515625 
Q 13.234375 26.265625 9.515625 29.90625 
Q 5.8125 33.546875 5.8125 39.890625 
Q 5.8125 47.609375 11.28125 51.796875 
Q 16.75 56 26.8125 56 
Q 31.78125 56 36.171875 55.265625 
Q 40.578125 54.546875 44.28125 53.078125 
z
" id="DejaVuSans-115"/>
     </defs>
     <g style="fill:#555555;" transform="translate(189.779375 410.243437)rotate(-90)scale(0.12 -0.12)">
      <use xlink:href="#DejaVuSans-78"/>
      <use x="74.804688" xlink:href="#DejaVuSans-250"/>
      <use x="138.183594" xlink:href="#DejaVuSans-109"/>
      <use x="235.595703" xlink:href="#DejaVuSans-101"/>
      <use x="297.119141" xlink:href="#DejaVuSans-114"/>
      <use x="335.982422" xlink:href="#DejaVuSans-111"/>
      <use x="397.164062" xlink:href="#DejaVuSans-32"/>
      <use x="428.951172" xlink:href="#DejaVuSans-100"/>
      <use x="492.427734" xlink:href="#DejaVuSans-101"/>
      <use x="553.951172" xlink:href="#DejaVuSans-32"/>
      <use x="585.738281" xlink:href="#DejaVuSans-99"/>
      <use x="640.71875" xlink:href="#DejaVuSans-97"/>
      <use x="701.998047" xlink:href="#DejaVuSans-115"/>
      <use x="754.097656" xlink:href="#DejaVuSans-111"/>
      <use x="815.279297" xlink:href="#DejaVuSans-115"/>
     </g>
    </g>
   </g>
   <g id="line2d_25">
    <path clip-path="url(#p1e07df5ade)" d="M 276.872727 598.638462 
L 300.285315 598.638462 
L 323.697902 598.638462 
L 347.11049 598.638462 
L 370.523077 598.638462 
L 393.935664 603.865385 
L 417.348252 598.638462 
L 440.760839 593.411538 
L 464.173427 593.411538 
L 487.586014 593.411538 
L 510.998601 593.411538 
L 534.411189 593.411538 
L 557.823776 588.184615 
L 581.236364 588.184615 
L 604.648951 588.184615 
L 628.061538 588.184615 
L 651.474126 582.957692 
L 674.886713 582.957692 
L 698.299301 582.957692 
L 721.711888 582.957692 
L 745.124476 572.503846 
L 768.537063 562.05 
L 791.94965 535.915385 
L 815.362238 535.915385 
L 838.774825 535.915385 
L 862.187413 509.780769 
L 885.6 467.965385 
L 909.012587 462.738462 
L 932.425175 462.738462 
L 955.837762 462.738462 
L 979.25035 441.830769 
L 1002.662937 436.603846 
L 1026.075524 217.073077 
L 1049.488112 211.846154 
L 1072.900699 201.392308 
L 1096.313287 185.711538 
L 1119.725874 185.711538 
L 1143.138462 180.484615 
L 1166.551049 180.484615 
L 1189.963636 170.030769 
L 1213.376224 170.030769 
L 1236.788811 170.030769 
L 1260.201399 164.803846 
L 1283.613986 154.35 
L 1307.026573 154.35 
L 1330.439161 149.123077 
L 1353.851748 149.123077 
L 1377.264336 149.123077 
L 1400.676923 138.669231 
L 1424.08951 138.669231 
L 1447.502098 138.669231 
L 1470.914685 138.669231 
L 1494.327273 138.669231 
" style="fill:none;stroke:#0000ff;stroke-linecap:square;stroke-width:1.5;"/>
    <defs>
     <path d="M 0 3 
C 0.795609 3 1.55874 2.683901 2.12132 2.12132 
C 2.683901 1.55874 3 0.795609 3 0 
C 3 -0.795609 2.683901 -1.55874 2.12132 -2.12132 
C 1.55874 -2.683901 0.795609 -3 0 -3 
C -0.795609 -3 -1.55874 -2.683901 -2.12132 -2.12132 
C -2.683901 -1.55874 -3 -0.795609 -3 0 
C -3 0.795609 -2.683901 1.55874 -2.12132 2.12132 
C -1.55874 2.683901 -0.795609 3 0 3 
z
" id="m5c9e72e224" style="stroke:#0000ff;"/>
    </defs>
    <g clip-path="url(#p1e07df5ade)">
     <use style="fill:#0000ff;stroke:#0000ff;" x="276.872727" xlink:href="#m5c9e72e224" y="598.638462"/>
     <use style="fill:#0000ff;stroke:#0000ff;" x="300.285315" xlink:href="#m5c9e72e224" y="598.638462"/>
     <use style="fill:#0000ff;stroke:#0000ff;" x="323.697902" xlink:href="#m5c9e72e224" y="598.638462"/>
     <use style="fill:#0000ff;stroke:#0000ff;" x="347.11049" xlink:href="#m5c9e72e224" y="598.638462"/>
     <use style="fill:#0000ff;stroke:#0000ff;" x="370.523077" xlink:href="#m5c9e72e224" y="598.638462"/>
     <use style="fill:#0000ff;stroke:#0000ff;" x="393.935664" xlink:href="#m5c9e72e224" y="603.865385"/>
     <use style="fill:#0000ff;stroke:#0000ff;" x="417.348252" xlink:href="#m5c9e72e224" y="598.638462"/>
     <use style="fill:#0000ff;stroke:#0000ff;" x="440.760839" xlink:href="#m5c9e72e224" y="593.411538"/>
     <use style="fill:#0000ff;stroke:#0000ff;" x="464.173427" xlink:href="#m5c9e72e224" y="593.411538"/>
     <use style="fill:#0000ff;stroke:#0000ff;" x="487.586014" xlink:href="#m5c9e72e224" y="593.411538"/>
     <use style="fill:#0000ff;stroke:#0000ff;" x="510.998601" xlink:href="#m5c9e72e224" y="593.411538"/>
     <use style="fill:#0000ff;stroke:#0000ff;" x="534.411189" xlink:href="#m5c9e72e224" y="593.411538"/>
     <use style="fill:#0000ff;stroke:#0000ff;" x="557.823776" xlink:href="#m5c9e72e224" y="588.184615"/>
     <use style="fill:#0000ff;stroke:#0000ff;" x="581.236364" xlink:href="#m5c9e72e224" y="588.184615"/>
     <use style="fill:#0000ff;stroke:#0000ff;" x="604.648951" xlink:href="#m5c9e72e224" y="588.184615"/>
     <use style="fill:#0000ff;stroke:#0000ff;" x="628.061538" xlink:href="#m5c9e72e224" y="588.184615"/>
     <use style="fill:#0000ff;stroke:#0000ff;" x="651.474126" xlink:href="#m5c9e72e224" y="582.957692"/>
     <use style="fill:#0000ff;stroke:#0000ff;" x="674.886713" xlink:href="#m5c9e72e224" y="582.957692"/>
     <use style="fill:#0000ff;stroke:#0000ff;" x="698.299301" xlink:href="#m5c9e72e224" y="582.957692"/>
     <use style="fill:#0000ff;stroke:#0000ff;" x="721.711888" xlink:href="#m5c9e72e224" y="582.957692"/>
     <use style="fill:#0000ff;stroke:#0000ff;" x="745.124476" xlink:href="#m5c9e72e224" y="572.503846"/>
     <use style="fill:#0000ff;stroke:#0000ff;" x="768.537063" xlink:href="#m5c9e72e224" y="562.05"/>
     <use style="fill:#0000ff;stroke:#0000ff;" x="791.94965" xlink:href="#m5c9e72e224" y="535.915385"/>
     <use style="fill:#0000ff;stroke:#0000ff;" x="815.362238" xlink:href="#m5c9e72e224" y="535.915385"/>
     <use style="fill:#0000ff;stroke:#0000ff;" x="838.774825" xlink:href="#m5c9e72e224" y="535.915385"/>
     <use style="fill:#0000ff;stroke:#0000ff;" x="862.187413" xlink:href="#m5c9e72e224" y="509.780769"/>
     <use style="fill:#0000ff;stroke:#0000ff;" x="885.6" xlink:href="#m5c9e72e224" y="467.965385"/>
     <use style="fill:#0000ff;stroke:#0000ff;" x="909.012587" xlink:href="#m5c9e72e224" y="462.738462"/>
     <use style="fill:#0000ff;stroke:#0000ff;" x="932.425175" xlink:href="#m5c9e72e224" y="462.738462"/>
     <use style="fill:#0000ff;stroke:#0000ff;" x="955.837762" xlink:href="#m5c9e72e224" y="462.738462"/>
     <use style="fill:#0000ff;stroke:#0000ff;" x="979.25035" xlink:href="#m5c9e72e224" y="441.830769"/>
     <use style="fill:#0000ff;stroke:#0000ff;" x="1002.662937" xlink:href="#m5c9e72e224" y="436.603846"/>
     <use style="fill:#0000ff;stroke:#0000ff;" x="1026.075524" xlink:href="#m5c9e72e224" y="217.073077"/>
     <use style="fill:#0000ff;stroke:#0000ff;" x="1049.488112" xlink:href="#m5c9e72e224" y="211.846154"/>
     <use style="fill:#0000ff;stroke:#0000ff;" x="1072.900699" xlink:href="#m5c9e72e224" y="201.392308"/>
     <use style="fill:#0000ff;stroke:#0000ff;" x="1096.313287" xlink:href="#m5c9e72e224" y="185.711538"/>
     <use style="fill:#0000ff;stroke:#0000ff;" x="1119.725874" xlink:href="#m5c9e72e224" y="185.711538"/>
     <use style="fill:#0000ff;stroke:#0000ff;" x="1143.138462" xlink:href="#m5c9e72e224" y="180.484615"/>
     <use style="fill:#0000ff;stroke:#0000ff;" x="1166.551049" xlink:href="#m5c9e72e224" y="180.484615"/>
     <use style="fill:#0000ff;stroke:#0000ff;" x="1189.963636" xlink:href="#m5c9e72e224" y="170.030769"/>
     <use style="fill:#0000ff;stroke:#0000ff;" x="1213.376224" xlink:href="#m5c9e72e224" y="170.030769"/>
     <use style="fill:#0000ff;stroke:#0000ff;" x="1236.788811" xlink:href="#m5c9e72e224" y="170.030769"/>
     <use style="fill:#0000ff;stroke:#0000ff;" x="1260.201399" xlink:href="#m5c9e72e224" y="164.803846"/>
     <use style="fill:#0000ff;stroke:#0000ff;" x="1283.613986" xlink:href="#m5c9e72e224" y="154.35"/>
     <use style="fill:#0000ff;stroke:#0000ff;" x="1307.026573" xlink:href="#m5c9e72e224" y="154.35"/>
     <use style="fill:#0000ff;stroke:#0000ff;" x="1330.439161" xlink:href="#m5c9e72e224" y="149.123077"/>
     <use style="fill:#0000ff;stroke:#0000ff;" x="1353.851748" xlink:href="#m5c9e72e224" y="149.123077"/>
     <use style="fill:#0000ff;stroke:#0000ff;" x="1377.264336" xlink:href="#m5c9e72e224" y="149.123077"/>
     <use style="fill:#0000ff;stroke:#0000ff;" x="1400.676923" xlink:href="#m5c9e72e224" y="138.669231"/>
     <use style="fill:#0000ff;stroke:#0000ff;" x="1424.08951" xlink:href="#m5c9e72e224" y="138.669231"/>
     <use style="fill:#0000ff;stroke:#0000ff;" x="1447.502098" xlink:href="#m5c9e72e224" y="138.669231"/>
     <use style="fill:#0000ff;stroke:#0000ff;" x="1470.914685" xlink:href="#m5c9e72e224" y="138.669231"/>
     <use style="fill:#0000ff;stroke:#0000ff;" x="1494.327273" xlink:href="#m5c9e72e224" y="138.669231"/>
    </g>
   </g>
   <g id="line2d_26">
    <path clip-path="url(#p1e07df5ade)" d="M 276.872727 603.865385 
L 300.285315 603.865385 
L 323.697902 598.638462 
L 347.11049 598.638462 
L 370.523077 598.638462 
L 393.935664 603.865385 
L 417.348252 598.638462 
L 440.760839 593.411538 
L 464.173427 593.411538 
L 487.586014 593.411538 
L 510.998601 593.411538 
L 534.411189 593.411538 
L 557.823776 588.184615 
L 581.236364 588.184615 
L 604.648951 588.184615 
L 628.061538 588.184615 
L 651.474126 582.957692 
L 674.886713 582.957692 
L 698.299301 582.957692 
L 721.711888 582.957692 
L 745.124476 572.503846 
L 768.537063 562.05 
L 791.94965 535.915385 
L 815.362238 535.915385 
L 838.774825 535.915385 
L 862.187413 509.780769 
L 885.6 467.965385 
L 909.012587 467.965385 
L 932.425175 467.965385 
L 955.837762 467.965385 
L 979.25035 452.284615 
L 1002.662937 447.057692 
L 1026.075524 269.342308 
L 1049.488112 300.703846 
L 1072.900699 311.157692 
L 1096.313287 332.065385 
L 1119.725874 342.519231 
L 1143.138462 363.426923 
L 1166.551049 400.015385 
L 1189.963636 405.242308 
L 1213.376224 420.923077 
L 1236.788811 462.738462 
L 1260.201399 483.646154 
L 1283.613986 488.873077 
L 1307.026573 499.326923 
L 1330.439161 515.007692 
L 1353.851748 515.007692 
L 1377.264336 515.007692 
L 1400.676923 504.553846 
L 1424.08951 546.369231 
L 1447.502098 551.596154 
L 1470.914685 572.503846 
L 1494.327273 577.730769 
" style="fill:none;stroke:#ffff00;stroke-linecap:square;stroke-width:1.5;"/>
    <defs>
     <path d="M 0 3 
C 0.795609 3 1.55874 2.683901 2.12132 2.12132 
C 2.683901 1.55874 3 0.795609 3 0 
C 3 -0.795609 2.683901 -1.55874 2.12132 -2.12132 
C 1.55874 -2.683901 0.795609 -3 0 -3 
C -0.795609 -3 -1.55874 -2.683901 -2.12132 -2.12132 
C -2.683901 -1.55874 -3 -0.795609 -3 0 
C -3 0.795609 -2.683901 1.55874 -2.12132 2.12132 
C -1.55874 2.683901 -0.795609 3 0 3 
z
" id="m510943035e" style="stroke:#ffff00;"/>
    </defs>
    <g clip-path="url(#p1e07df5ade)">
     <use style="fill:#ffff00;stroke:#ffff00;" x="276.872727" xlink:href="#m510943035e" y="603.865385"/>
     <use style="fill:#ffff00;stroke:#ffff00;" x="300.285315" xlink:href="#m510943035e" y="603.865385"/>
     <use style="fill:#ffff00;stroke:#ffff00;" x="323.697902" xlink:href="#m510943035e" y="598.638462"/>
     <use style="fill:#ffff00;stroke:#ffff00;" x="347.11049" xlink:href="#m510943035e" y="598.638462"/>
     <use style="fill:#ffff00;stroke:#ffff00;" x="370.523077" xlink:href="#m510943035e" y="598.638462"/>
     <use style="fill:#ffff00;stroke:#ffff00;" x="393.935664" xlink:href="#m510943035e" y="603.865385"/>
     <use style="fill:#ffff00;stroke:#ffff00;" x="417.348252" xlink:href="#m510943035e" y="598.638462"/>
     <use style="fill:#ffff00;stroke:#ffff00;" x="440.760839" xlink:href="#m510943035e" y="593.411538"/>
     <use style="fill:#ffff00;stroke:#ffff00;" x="464.173427" xlink:href="#m510943035e" y="593.411538"/>
     <use style="fill:#ffff00;stroke:#ffff00;" x="487.586014" xlink:href="#m510943035e" y="593.411538"/>
     <use style="fill:#ffff00;stroke:#ffff00;" x="510.998601" xlink:href="#m510943035e" y="593.411538"/>
     <use style="fill:#ffff00;stroke:#ffff00;" x="534.411189" xlink:href="#m510943035e" y="593.411538"/>
     <use style="fill:#ffff00;stroke:#ffff00;" x="557.823776" xlink:href="#m510943035e" y="588.184615"/>
     <use style="fill:#ffff00;stroke:#ffff00;" x="581.236364" xlink:href="#m510943035e" y="588.184615"/>
     <use style="fill:#ffff00;stroke:#ffff00;" x="604.648951" xlink:href="#m510943035e" y="588.184615"/>
     <use style="fill:#ffff00;stroke:#ffff00;" x="628.061538" xlink:href="#m510943035e" y="588.184615"/>
     <use style="fill:#ffff00;stroke:#ffff00;" x="651.474126" xlink:href="#m510943035e" y="582.957692"/>
     <use style="fill:#ffff00;stroke:#ffff00;" x="674.886713" xlink:href="#m510943035e" y="582.957692"/>
     <use style="fill:#ffff00;stroke:#ffff00;" x="698.299301" xlink:href="#m510943035e" y="582.957692"/>
     <use style="fill:#ffff00;stroke:#ffff00;" x="721.711888" xlink:href="#m510943035e" y="582.957692"/>
     <use style="fill:#ffff00;stroke:#ffff00;" x="745.124476" xlink:href="#m510943035e" y="572.503846"/>
     <use style="fill:#ffff00;stroke:#ffff00;" x="768.537063" xlink:href="#m510943035e" y="562.05"/>
     <use style="fill:#ffff00;stroke:#ffff00;" x="791.94965" xlink:href="#m510943035e" y="535.915385"/>
     <use style="fill:#ffff00;stroke:#ffff00;" x="815.362238" xlink:href="#m510943035e" y="535.915385"/>
     <use style="fill:#ffff00;stroke:#ffff00;" x="838.774825" xlink:href="#m510943035e" y="535.915385"/>
     <use style="fill:#ffff00;stroke:#ffff00;" x="862.187413" xlink:href="#m510943035e" y="509.780769"/>
     <use style="fill:#ffff00;stroke:#ffff00;" x="885.6" xlink:href="#m510943035e" y="467.965385"/>
     <use style="fill:#ffff00;stroke:#ffff00;" x="909.012587" xlink:href="#m510943035e" y="467.965385"/>
     <use style="fill:#ffff00;stroke:#ffff00;" x="932.425175" xlink:href="#m510943035e" y="467.965385"/>
     <use style="fill:#ffff00;stroke:#ffff00;" x="955.837762" xlink:href="#m510943035e" y="467.965385"/>
     <use style="fill:#ffff00;stroke:#ffff00;" x="979.25035" xlink:href="#m510943035e" y="452.284615"/>
     <use style="fill:#ffff00;stroke:#ffff00;" x="1002.662937" xlink:href="#m510943035e" y="447.057692"/>
     <use style="fill:#ffff00;stroke:#ffff00;" x="1026.075524" xlink:href="#m510943035e" y="269.342308"/>
     <use style="fill:#ffff00;stroke:#ffff00;" x="1049.488112" xlink:href="#m510943035e" y="300.703846"/>
     <use style="fill:#ffff00;stroke:#ffff00;" x="1072.900699" xlink:href="#m510943035e" y="311.157692"/>
     <use style="fill:#ffff00;stroke:#ffff00;" x="1096.313287" xlink:href="#m510943035e" y="332.065385"/>
     <use style="fill:#ffff00;stroke:#ffff00;" x="1119.725874" xlink:href="#m510943035e" y="342.519231"/>
     <use style="fill:#ffff00;stroke:#ffff00;" x="1143.138462" xlink:href="#m510943035e" y="363.426923"/>
     <use style="fill:#ffff00;stroke:#ffff00;" x="1166.551049" xlink:href="#m510943035e" y="400.015385"/>
     <use style="fill:#ffff00;stroke:#ffff00;" x="1189.963636" xlink:href="#m510943035e" y="405.242308"/>
     <use style="fill:#ffff00;stroke:#ffff00;" x="1213.376224" xlink:href="#m510943035e" y="420.923077"/>
     <use style="fill:#ffff00;stroke:#ffff00;" x="1236.788811" xlink:href="#m510943035e" y="462.738462"/>
     <use style="fill:#ffff00;stroke:#ffff00;" x="1260.201399" xlink:href="#m510943035e" y="483.646154"/>
     <use style="fill:#ffff00;stroke:#ffff00;" x="1283.613986" xlink:href="#m510943035e" y="488.873077"/>
     <use style="fill:#ffff00;stroke:#ffff00;" x="1307.026573" xlink:href="#m510943035e" y="499.326923"/>
     <use style="fill:#ffff00;stroke:#ffff00;" x="1330.439161" xlink:href="#m510943035e" y="515.007692"/>
     <use style="fill:#ffff00;stroke:#ffff00;" x="1353.851748" xlink:href="#m510943035e" y="515.007692"/>
     <use style="fill:#ffff00;stroke:#ffff00;" x="1377.264336" xlink:href="#m510943035e" y="515.007692"/>
     <use style="fill:#ffff00;stroke:#ffff00;" x="1400.676923" xlink:href="#m510943035e" y="504.553846"/>
     <use style="fill:#ffff00;stroke:#ffff00;" x="1424.08951" xlink:href="#m510943035e" y="546.369231"/>
     <use style="fill:#ffff00;stroke:#ffff00;" x="1447.502098" xlink:href="#m510943035e" y="551.596154"/>
     <use style="fill:#ffff00;stroke:#ffff00;" x="1470.914685" xlink:href="#m510943035e" y="572.503846"/>
     <use style="fill:#ffff00;stroke:#ffff00;" x="1494.327273" xlink:href="#m510943035e" y="577.730769"/>
    </g>
   </g>
   <g id="line2d_27">
    <path clip-path="url(#p1e07df5ade)" d="M 276.872727 598.638462 
L 300.285315 598.638462 
L 323.697902 603.865385 
L 347.11049 603.865385 
L 370.523077 603.865385 
L 393.935664 603.865385 
L 417.348252 603.865385 
L 440.760839 603.865385 
L 464.173427 603.865385 
L 487.586014 603.865385 
L 510.998601 603.865385 
L 534.411189 603.865385 
L 557.823776 603.865385 
L 581.236364 603.865385 
L 604.648951 603.865385 
L 628.061538 603.865385 
L 651.474126 603.865385 
L 674.886713 603.865385 
L 698.299301 603.865385 
L 721.711888 603.865385 
L 745.124476 603.865385 
L 768.537063 603.865385 
L 791.94965 603.865385 
L 815.362238 603.865385 
L 838.774825 603.865385 
L 862.187413 603.865385 
L 885.6 603.865385 
L 909.012587 598.638462 
L 932.425175 598.638462 
L 955.837762 598.638462 
L 979.25035 593.411538 
L 1002.662937 593.411538 
L 1026.075524 551.596154 
L 1049.488112 515.007692 
L 1072.900699 494.1 
L 1096.313287 457.511538 
L 1119.725874 447.057692 
L 1143.138462 420.923077 
L 1166.551049 384.334615 
L 1189.963636 368.653846 
L 1213.376224 352.973077 
L 1236.788811 311.157692 
L 1260.201399 285.023077 
L 1283.613986 269.342308 
L 1307.026573 258.888462 
L 1330.439161 237.980769 
L 1353.851748 237.980769 
L 1377.264336 237.980769 
L 1400.676923 237.980769 
L 1424.08951 196.165385 
L 1447.502098 190.938462 
L 1470.914685 170.030769 
L 1494.327273 164.803846 
" style="fill:none;stroke:#008000;stroke-linecap:square;stroke-width:1.5;"/>
    <defs>
     <path d="M 0 3 
C 0.795609 3 1.55874 2.683901 2.12132 2.12132 
C 2.683901 1.55874 3 0.795609 3 0 
C 3 -0.795609 2.683901 -1.55874 2.12132 -2.12132 
C 1.55874 -2.683901 0.795609 -3 0 -3 
C -0.795609 -3 -1.55874 -2.683901 -2.12132 -2.12132 
C -2.683901 -1.55874 -3 -0.795609 -3 0 
C -3 0.795609 -2.683901 1.55874 -2.12132 2.12132 
C -1.55874 2.683901 -0.795609 3 0 3 
z
" id="m0dc5f493ab" style="stroke:#008000;"/>
    </defs>
    <g clip-path="url(#p1e07df5ade)">
     <use style="fill:#008000;stroke:#008000;" x="276.872727" xlink:href="#m0dc5f493ab" y="598.638462"/>
     <use style="fill:#008000;stroke:#008000;" x="300.285315" xlink:href="#m0dc5f493ab" y="598.638462"/>
     <use style="fill:#008000;stroke:#008000;" x="323.697902" xlink:href="#m0dc5f493ab" y="603.865385"/>
     <use style="fill:#008000;stroke:#008000;" x="347.11049" xlink:href="#m0dc5f493ab" y="603.865385"/>
     <use style="fill:#008000;stroke:#008000;" x="370.523077" xlink:href="#m0dc5f493ab" y="603.865385"/>
     <use style="fill:#008000;stroke:#008000;" x="393.935664" xlink:href="#m0dc5f493ab" y="603.865385"/>
     <use style="fill:#008000;stroke:#008000;" x="417.348252" xlink:href="#m0dc5f493ab" y="603.865385"/>
     <use style="fill:#008000;stroke:#008000;" x="440.760839" xlink:href="#m0dc5f493ab" y="603.865385"/>
     <use style="fill:#008000;stroke:#008000;" x="464.173427" xlink:href="#m0dc5f493ab" y="603.865385"/>
     <use style="fill:#008000;stroke:#008000;" x="487.586014" xlink:href="#m0dc5f493ab" y="603.865385"/>
     <use style="fill:#008000;stroke:#008000;" x="510.998601" xlink:href="#m0dc5f493ab" y="603.865385"/>
     <use style="fill:#008000;stroke:#008000;" x="534.411189" xlink:href="#m0dc5f493ab" y="603.865385"/>
     <use style="fill:#008000;stroke:#008000;" x="557.823776" xlink:href="#m0dc5f493ab" y="603.865385"/>
     <use style="fill:#008000;stroke:#008000;" x="581.236364" xlink:href="#m0dc5f493ab" y="603.865385"/>
     <use style="fill:#008000;stroke:#008000;" x="604.648951" xlink:href="#m0dc5f493ab" y="603.865385"/>
     <use style="fill:#008000;stroke:#008000;" x="628.061538" xlink:href="#m0dc5f493ab" y="603.865385"/>
     <use style="fill:#008000;stroke:#008000;" x="651.474126" xlink:href="#m0dc5f493ab" y="603.865385"/>
     <use style="fill:#008000;stroke:#008000;" x="674.886713" xlink:href="#m0dc5f493ab" y="603.865385"/>
     <use style="fill:#008000;stroke:#008000;" x="698.299301" xlink:href="#m0dc5f493ab" y="603.865385"/>
     <use style="fill:#008000;stroke:#008000;" x="721.711888" xlink:href="#m0dc5f493ab" y="603.865385"/>
     <use style="fill:#008000;stroke:#008000;" x="745.124476" xlink:href="#m0dc5f493ab" y="603.865385"/>
     <use style="fill:#008000;stroke:#008000;" x="768.537063" xlink:href="#m0dc5f493ab" y="603.865385"/>
     <use style="fill:#008000;stroke:#008000;" x="791.94965" xlink:href="#m0dc5f493ab" y="603.865385"/>
     <use style="fill:#008000;stroke:#008000;" x="815.362238" xlink:href="#m0dc5f493ab" y="603.865385"/>
     <use style="fill:#008000;stroke:#008000;" x="838.774825" xlink:href="#m0dc5f493ab" y="603.865385"/>
     <use style="fill:#008000;stroke:#008000;" x="862.187413" xlink:href="#m0dc5f493ab" y="603.865385"/>
     <use style="fill:#008000;stroke:#008000;" x="885.6" xlink:href="#m0dc5f493ab" y="603.865385"/>
     <use style="fill:#008000;stroke:#008000;" x="909.012587" xlink:href="#m0dc5f493ab" y="598.638462"/>
     <use style="fill:#008000;stroke:#008000;" x="932.425175" xlink:href="#m0dc5f493ab" y="598.638462"/>
     <use style="fill:#008000;stroke:#008000;" x="955.837762" xlink:href="#m0dc5f493ab" y="598.638462"/>
     <use style="fill:#008000;stroke:#008000;" x="979.25035" xlink:href="#m0dc5f493ab" y="593.411538"/>
     <use style="fill:#008000;stroke:#008000;" x="1002.662937" xlink:href="#m0dc5f493ab" y="593.411538"/>
     <use style="fill:#008000;stroke:#008000;" x="1026.075524" xlink:href="#m0dc5f493ab" y="551.596154"/>
     <use style="fill:#008000;stroke:#008000;" x="1049.488112" xlink:href="#m0dc5f493ab" y="515.007692"/>
     <use style="fill:#008000;stroke:#008000;" x="1072.900699" xlink:href="#m0dc5f493ab" y="494.1"/>
     <use style="fill:#008000;stroke:#008000;" x="1096.313287" xlink:href="#m0dc5f493ab" y="457.511538"/>
     <use style="fill:#008000;stroke:#008000;" x="1119.725874" xlink:href="#m0dc5f493ab" y="447.057692"/>
     <use style="fill:#008000;stroke:#008000;" x="1143.138462" xlink:href="#m0dc5f493ab" y="420.923077"/>
     <use style="fill:#008000;stroke:#008000;" x="1166.551049" xlink:href="#m0dc5f493ab" y="384.334615"/>
     <use style="fill:#008000;stroke:#008000;" x="1189.963636" xlink:href="#m0dc5f493ab" y="368.653846"/>
     <use style="fill:#008000;stroke:#008000;" x="1213.376224" xlink:href="#m0dc5f493ab" y="352.973077"/>
     <use style="fill:#008000;stroke:#008000;" x="1236.788811" xlink:href="#m0dc5f493ab" y="311.157692"/>
     <use style="fill:#008000;stroke:#008000;" x="1260.201399" xlink:href="#m0dc5f493ab" y="285.023077"/>
     <use style="fill:#008000;stroke:#008000;" x="1283.613986" xlink:href="#m0dc5f493ab" y="269.342308"/>
     <use style="fill:#008000;stroke:#008000;" x="1307.026573" xlink:href="#m0dc5f493ab" y="258.888462"/>
     <use style="fill:#008000;stroke:#008000;" x="1330.439161" xlink:href="#m0dc5f493ab" y="237.980769"/>
     <use style="fill:#008000;stroke:#008000;" x="1353.851748" xlink:href="#m0dc5f493ab" y="237.980769"/>
     <use style="fill:#008000;stroke:#008000;" x="1377.264336" xlink:href="#m0dc5f493ab" y="237.980769"/>
     <use style="fill:#008000;stroke:#008000;" x="1400.676923" xlink:href="#m0dc5f493ab" y="237.980769"/>
     <use style="fill:#008000;stroke:#008000;" x="1424.08951" xlink:href="#m0dc5f493ab" y="196.165385"/>
     <use style="fill:#008000;stroke:#008000;" x="1447.502098" xlink:href="#m0dc5f493ab" y="190.938462"/>
     <use style="fill:#008000;stroke:#008000;" x="1470.914685" xlink:href="#m0dc5f493ab" y="170.030769"/>
     <use style="fill:#008000;stroke:#008000;" x="1494.327273" xlink:href="#m0dc5f493ab" y="164.803846"/>
    </g>
   </g>
   <g id="line2d_28">
    <path clip-path="url(#p1e07df5ade)" d="M 276.872727 598.638462 
L 300.285315 603.865385 
L 323.697902 603.865385 
L 347.11049 603.865385 
L 370.523077 603.865385 
L 393.935664 609.092308 
L 417.348252 598.638462 
L 440.760839 598.638462 
L 464.173427 603.865385 
L 487.586014 603.865385 
L 510.998601 603.865385 
L 534.411189 603.865385 
L 557.823776 598.638462 
L 581.236364 603.865385 
L 604.648951 603.865385 
L 628.061538 603.865385 
L 651.474126 598.638462 
L 674.886713 603.865385 
L 698.299301 603.865385 
L 721.711888 603.865385 
L 745.124476 593.411538 
L 768.537063 593.411538 
L 791.94965 577.730769 
L 815.362238 603.865385 
L 838.774825 603.865385 
L 862.187413 577.730769 
L 885.6 562.05 
L 909.012587 598.638462 
L 932.425175 603.865385 
L 955.837762 603.865385 
L 979.25035 582.957692 
L 1002.662937 598.638462 
L 1026.075524 384.334615 
L 1049.488112 598.638462 
L 1072.900699 593.411538 
L 1096.313287 588.184615 
L 1119.725874 603.865385 
L 1143.138462 598.638462 
L 1166.551049 603.865385 
L 1189.963636 593.411538 
L 1213.376224 603.865385 
L 1236.788811 603.865385 
L 1260.201399 598.638462 
L 1283.613986 593.411538 
L 1307.026573 603.865385 
L 1330.439161 598.638462 
L 1353.851748 603.865385 
L 1377.264336 603.865385 
L 1400.676923 593.411538 
L 1424.08951 603.865385 
L 1447.502098 603.865385 
L 1470.914685 603.865385 
L 1494.327273 603.865385 
" style="fill:none;stroke:#ffa500;stroke-linecap:square;stroke-width:1.5;"/>
    <defs>
     <path d="M 0 3 
C 0.795609 3 1.55874 2.683901 2.12132 2.12132 
C 2.683901 1.55874 3 0.795609 3 0 
C 3 -0.795609 2.683901 -1.55874 2.12132 -2.12132 
C 1.55874 -2.683901 0.795609 -3 0 -3 
C -0.795609 -3 -1.55874 -2.683901 -2.12132 -2.12132 
C -2.683901 -1.55874 -3 -0.795609 -3 0 
C -3 0.795609 -2.683901 1.55874 -2.12132 2.12132 
C -1.55874 2.683901 -0.795609 3 0 3 
z
" id="m87f84ccdb3" style="stroke:#ffa500;"/>
    </defs>
    <g clip-path="url(#p1e07df5ade)">
     <use style="fill:#ffa500;stroke:#ffa500;" x="276.872727" xlink:href="#m87f84ccdb3" y="598.638462"/>
     <use style="fill:#ffa500;stroke:#ffa500;" x="300.285315" xlink:href="#m87f84ccdb3" y="603.865385"/>
     <use style="fill:#ffa500;stroke:#ffa500;" x="323.697902" xlink:href="#m87f84ccdb3" y="603.865385"/>
     <use style="fill:#ffa500;stroke:#ffa500;" x="347.11049" xlink:href="#m87f84ccdb3" y="603.865385"/>
     <use style="fill:#ffa500;stroke:#ffa500;" x="370.523077" xlink:href="#m87f84ccdb3" y="603.865385"/>
     <use style="fill:#ffa500;stroke:#ffa500;" x="393.935664" xlink:href="#m87f84ccdb3" y="609.092308"/>
     <use style="fill:#ffa500;stroke:#ffa500;" x="417.348252" xlink:href="#m87f84ccdb3" y="598.638462"/>
     <use style="fill:#ffa500;stroke:#ffa500;" x="440.760839" xlink:href="#m87f84ccdb3" y="598.638462"/>
     <use style="fill:#ffa500;stroke:#ffa500;" x="464.173427" xlink:href="#m87f84ccdb3" y="603.865385"/>
     <use style="fill:#ffa500;stroke:#ffa500;" x="487.586014" xlink:href="#m87f84ccdb3" y="603.865385"/>
     <use style="fill:#ffa500;stroke:#ffa500;" x="510.998601" xlink:href="#m87f84ccdb3" y="603.865385"/>
     <use style="fill:#ffa500;stroke:#ffa500;" x="534.411189" xlink:href="#m87f84ccdb3" y="603.865385"/>
     <use style="fill:#ffa500;stroke:#ffa500;" x="557.823776" xlink:href="#m87f84ccdb3" y="598.638462"/>
     <use style="fill:#ffa500;stroke:#ffa500;" x="581.236364" xlink:href="#m87f84ccdb3" y="603.865385"/>
     <use style="fill:#ffa500;stroke:#ffa500;" x="604.648951" xlink:href="#m87f84ccdb3" y="603.865385"/>
     <use style="fill:#ffa500;stroke:#ffa500;" x="628.061538" xlink:href="#m87f84ccdb3" y="603.865385"/>
     <use style="fill:#ffa500;stroke:#ffa500;" x="651.474126" xlink:href="#m87f84ccdb3" y="598.638462"/>
     <use style="fill:#ffa500;stroke:#ffa500;" x="674.886713" xlink:href="#m87f84ccdb3" y="603.865385"/>
     <use style="fill:#ffa500;stroke:#ffa500;" x="698.299301" xlink:href="#m87f84ccdb3" y="603.865385"/>
     <use style="fill:#ffa500;stroke:#ffa500;" x="721.711888" xlink:href="#m87f84ccdb3" y="603.865385"/>
     <use style="fill:#ffa500;stroke:#ffa500;" x="745.124476" xlink:href="#m87f84ccdb3" y="593.411538"/>
     <use style="fill:#ffa500;stroke:#ffa500;" x="768.537063" xlink:href="#m87f84ccdb3" y="593.411538"/>
     <use style="fill:#ffa500;stroke:#ffa500;" x="791.94965" xlink:href="#m87f84ccdb3" y="577.730769"/>
     <use style="fill:#ffa500;stroke:#ffa500;" x="815.362238" xlink:href="#m87f84ccdb3" y="603.865385"/>
     <use style="fill:#ffa500;stroke:#ffa500;" x="838.774825" xlink:href="#m87f84ccdb3" y="603.865385"/>
     <use style="fill:#ffa500;stroke:#ffa500;" x="862.187413" xlink:href="#m87f84ccdb3" y="577.730769"/>
     <use style="fill:#ffa500;stroke:#ffa500;" x="885.6" xlink:href="#m87f84ccdb3" y="562.05"/>
     <use style="fill:#ffa500;stroke:#ffa500;" x="909.012587" xlink:href="#m87f84ccdb3" y="598.638462"/>
     <use style="fill:#ffa500;stroke:#ffa500;" x="932.425175" xlink:href="#m87f84ccdb3" y="603.865385"/>
     <use style="fill:#ffa500;stroke:#ffa500;" x="955.837762" xlink:href="#m87f84ccdb3" y="603.865385"/>
     <use style="fill:#ffa500;stroke:#ffa500;" x="979.25035" xlink:href="#m87f84ccdb3" y="582.957692"/>
     <use style="fill:#ffa500;stroke:#ffa500;" x="1002.662937" xlink:href="#m87f84ccdb3" y="598.638462"/>
     <use style="fill:#ffa500;stroke:#ffa500;" x="1026.075524" xlink:href="#m87f84ccdb3" y="384.334615"/>
     <use style="fill:#ffa500;stroke:#ffa500;" x="1049.488112" xlink:href="#m87f84ccdb3" y="598.638462"/>
     <use style="fill:#ffa500;stroke:#ffa500;" x="1072.900699" xlink:href="#m87f84ccdb3" y="593.411538"/>
     <use style="fill:#ffa500;stroke:#ffa500;" x="1096.313287" xlink:href="#m87f84ccdb3" y="588.184615"/>
     <use style="fill:#ffa500;stroke:#ffa500;" x="1119.725874" xlink:href="#m87f84ccdb3" y="603.865385"/>
     <use style="fill:#ffa500;stroke:#ffa500;" x="1143.138462" xlink:href="#m87f84ccdb3" y="598.638462"/>
     <use style="fill:#ffa500;stroke:#ffa500;" x="1166.551049" xlink:href="#m87f84ccdb3" y="603.865385"/>
     <use style="fill:#ffa500;stroke:#ffa500;" x="1189.963636" xlink:href="#m87f84ccdb3" y="593.411538"/>
     <use style="fill:#ffa500;stroke:#ffa500;" x="1213.376224" xlink:href="#m87f84ccdb3" y="603.865385"/>
     <use style="fill:#ffa500;stroke:#ffa500;" x="1236.788811" xlink:href="#m87f84ccdb3" y="603.865385"/>
     <use style="fill:#ffa500;stroke:#ffa500;" x="1260.201399" xlink:href="#m87f84ccdb3" y="598.638462"/>
     <use style="fill:#ffa500;stroke:#ffa500;" x="1283.613986" xlink:href="#m87f84ccdb3" y="593.411538"/>
     <use style="fill:#ffa500;stroke:#ffa500;" x="1307.026573" xlink:href="#m87f84ccdb3" y="603.865385"/>
     <use style="fill:#ffa500;stroke:#ffa500;" x="1330.439161" xlink:href="#m87f84ccdb3" y="598.638462"/>
     <use style="fill:#ffa500;stroke:#ffa500;" x="1353.851748" xlink:href="#m87f84ccdb3" y="603.865385"/>
     <use style="fill:#ffa500;stroke:#ffa500;" x="1377.264336" xlink:href="#m87f84ccdb3" y="603.865385"/>
     <use style="fill:#ffa500;stroke:#ffa500;" x="1400.676923" xlink:href="#m87f84ccdb3" y="593.411538"/>
     <use style="fill:#ffa500;stroke:#ffa500;" x="1424.08951" xlink:href="#m87f84ccdb3" y="603.865385"/>
     <use style="fill:#ffa500;stroke:#ffa500;" x="1447.502098" xlink:href="#m87f84ccdb3" y="603.865385"/>
     <use style="fill:#ffa500;stroke:#ffa500;" x="1470.914685" xlink:href="#m87f84ccdb3" y="603.865385"/>
     <use style="fill:#ffa500;stroke:#ffa500;" x="1494.327273" xlink:href="#m87f84ccdb3" y="603.865385"/>
    </g>
   </g>
   <g id="line2d_29">
    <path clip-path="url(#p1e07df5ade)" d="M 276.872727 603.865385 
L 300.285315 603.865385 
L 323.697902 603.865385 
L 347.11049 603.865385 
L 370.523077 603.865385 
L 393.935664 603.865385 
L 417.348252 603.865385 
L 440.760839 603.865385 
L 464.173427 603.865385 
L 487.586014 603.865385 
L 510.998601 603.865385 
L 534.411189 603.865385 
L 557.823776 603.865385 
L 581.236364 603.865385 
L 604.648951 603.865385 
L 628.061538 603.865385 
L 651.474126 603.865385 
L 674.886713 603.865385 
L 698.299301 603.865385 
L 721.711888 603.865385 
L 745.124476 603.865385 
L 768.537063 603.865385 
L 791.94965 603.865385 
L 815.362238 603.865385 
L 838.774825 603.865385 
L 862.187413 603.865385 
L 885.6 603.865385 
L 909.012587 603.865385 
L 932.425175 603.865385 
L 955.837762 603.865385 
L 979.25035 603.865385 
L 1002.662937 603.865385 
L 1026.075524 603.865385 
L 1049.488112 603.865385 
L 1072.900699 603.865385 
L 1096.313287 603.865385 
L 1119.725874 603.865385 
L 1143.138462 603.865385 
L 1166.551049 603.865385 
L 1189.963636 603.865385 
L 1213.376224 603.865385 
L 1236.788811 603.865385 
L 1260.201399 603.865385 
L 1283.613986 603.865385 
L 1307.026573 603.865385 
L 1330.439161 603.865385 
L 1353.851748 603.865385 
L 1377.264336 603.865385 
L 1400.676923 603.865385 
L 1424.08951 603.865385 
L 1447.502098 603.865385 
L 1470.914685 603.865385 
L 1494.327273 603.865385 
" style="fill:none;stroke:#ff0000;stroke-linecap:square;stroke-width:1.5;"/>
    <defs>
     <path d="M 0 3 
C 0.795609 3 1.55874 2.683901 2.12132 2.12132 
C 2.683901 1.55874 3 0.795609 3 0 
C 3 -0.795609 2.683901 -1.55874 2.12132 -2.12132 
C 1.55874 -2.683901 0.795609 -3 0 -3 
C -0.795609 -3 -1.55874 -2.683901 -2.12132 -2.12132 
C -2.683901 -1.55874 -3 -0.795609 -3 0 
C -3 0.795609 -2.683901 1.55874 -2.12132 2.12132 
C -1.55874 2.683901 -0.795609 3 0 3 
z
" id="m83297fea48" style="stroke:#ff0000;"/>
    </defs>
    <g clip-path="url(#p1e07df5ade)">
     <use style="fill:#ff0000;stroke:#ff0000;" x="276.872727" xlink:href="#m83297fea48" y="603.865385"/>
     <use style="fill:#ff0000;stroke:#ff0000;" x="300.285315" xlink:href="#m83297fea48" y="603.865385"/>
     <use style="fill:#ff0000;stroke:#ff0000;" x="323.697902" xlink:href="#m83297fea48" y="603.865385"/>
     <use style="fill:#ff0000;stroke:#ff0000;" x="347.11049" xlink:href="#m83297fea48" y="603.865385"/>
     <use style="fill:#ff0000;stroke:#ff0000;" x="370.523077" xlink:href="#m83297fea48" y="603.865385"/>
     <use style="fill:#ff0000;stroke:#ff0000;" x="393.935664" xlink:href="#m83297fea48" y="603.865385"/>
     <use style="fill:#ff0000;stroke:#ff0000;" x="417.348252" xlink:href="#m83297fea48" y="603.865385"/>
     <use style="fill:#ff0000;stroke:#ff0000;" x="440.760839" xlink:href="#m83297fea48" y="603.865385"/>
     <use style="fill:#ff0000;stroke:#ff0000;" x="464.173427" xlink:href="#m83297fea48" y="603.865385"/>
     <use style="fill:#ff0000;stroke:#ff0000;" x="487.586014" xlink:href="#m83297fea48" y="603.865385"/>
     <use style="fill:#ff0000;stroke:#ff0000;" x="510.998601" xlink:href="#m83297fea48" y="603.865385"/>
     <use style="fill:#ff0000;stroke:#ff0000;" x="534.411189" xlink:href="#m83297fea48" y="603.865385"/>
     <use style="fill:#ff0000;stroke:#ff0000;" x="557.823776" xlink:href="#m83297fea48" y="603.865385"/>
     <use style="fill:#ff0000;stroke:#ff0000;" x="581.236364" xlink:href="#m83297fea48" y="603.865385"/>
     <use style="fill:#ff0000;stroke:#ff0000;" x="604.648951" xlink:href="#m83297fea48" y="603.865385"/>
     <use style="fill:#ff0000;stroke:#ff0000;" x="628.061538" xlink:href="#m83297fea48" y="603.865385"/>
     <use style="fill:#ff0000;stroke:#ff0000;" x="651.474126" xlink:href="#m83297fea48" y="603.865385"/>
     <use style="fill:#ff0000;stroke:#ff0000;" x="674.886713" xlink:href="#m83297fea48" y="603.865385"/>
     <use style="fill:#ff0000;stroke:#ff0000;" x="698.299301" xlink:href="#m83297fea48" y="603.865385"/>
     <use style="fill:#ff0000;stroke:#ff0000;" x="721.711888" xlink:href="#m83297fea48" y="603.865385"/>
     <use style="fill:#ff0000;stroke:#ff0000;" x="745.124476" xlink:href="#m83297fea48" y="603.865385"/>
     <use style="fill:#ff0000;stroke:#ff0000;" x="768.537063" xlink:href="#m83297fea48" y="603.865385"/>
     <use style="fill:#ff0000;stroke:#ff0000;" x="791.94965" xlink:href="#m83297fea48" y="603.865385"/>
     <use style="fill:#ff0000;stroke:#ff0000;" x="815.362238" xlink:href="#m83297fea48" y="603.865385"/>
     <use style="fill:#ff0000;stroke:#ff0000;" x="838.774825" xlink:href="#m83297fea48" y="603.865385"/>
     <use style="fill:#ff0000;stroke:#ff0000;" x="862.187413" xlink:href="#m83297fea48" y="603.865385"/>
     <use style="fill:#ff0000;stroke:#ff0000;" x="885.6" xlink:href="#m83297fea48" y="603.865385"/>
     <use style="fill:#ff0000;stroke:#ff0000;" x="909.012587" xlink:href="#m83297fea48" y="603.865385"/>
     <use style="fill:#ff0000;stroke:#ff0000;" x="932.425175" xlink:href="#m83297fea48" y="603.865385"/>
     <use style="fill:#ff0000;stroke:#ff0000;" x="955.837762" xlink:href="#m83297fea48" y="603.865385"/>
     <use style="fill:#ff0000;stroke:#ff0000;" x="979.25035" xlink:href="#m83297fea48" y="603.865385"/>
     <use style="fill:#ff0000;stroke:#ff0000;" x="1002.662937" xlink:href="#m83297fea48" y="603.865385"/>
     <use style="fill:#ff0000;stroke:#ff0000;" x="1026.075524" xlink:href="#m83297fea48" y="603.865385"/>
     <use style="fill:#ff0000;stroke:#ff0000;" x="1049.488112" xlink:href="#m83297fea48" y="603.865385"/>
     <use style="fill:#ff0000;stroke:#ff0000;" x="1072.900699" xlink:href="#m83297fea48" y="603.865385"/>
     <use style="fill:#ff0000;stroke:#ff0000;" x="1096.313287" xlink:href="#m83297fea48" y="603.865385"/>
     <use style="fill:#ff0000;stroke:#ff0000;" x="1119.725874" xlink:href="#m83297fea48" y="603.865385"/>
     <use style="fill:#ff0000;stroke:#ff0000;" x="1143.138462" xlink:href="#m83297fea48" y="603.865385"/>
     <use style="fill:#ff0000;stroke:#ff0000;" x="1166.551049" xlink:href="#m83297fea48" y="603.865385"/>
     <use style="fill:#ff0000;stroke:#ff0000;" x="1189.963636" xlink:href="#m83297fea48" y="603.865385"/>
     <use style="fill:#ff0000;stroke:#ff0000;" x="1213.376224" xlink:href="#m83297fea48" y="603.865385"/>
     <use style="fill:#ff0000;stroke:#ff0000;" x="1236.788811" xlink:href="#m83297fea48" y="603.865385"/>
     <use style="fill:#ff0000;stroke:#ff0000;" x="1260.201399" xlink:href="#m83297fea48" y="603.865385"/>
     <use style="fill:#ff0000;stroke:#ff0000;" x="1283.613986" xlink:href="#m83297fea48" y="603.865385"/>
     <use style="fill:#ff0000;stroke:#ff0000;" x="1307.026573" xlink:href="#m83297fea48" y="603.865385"/>
     <use style="fill:#ff0000;stroke:#ff0000;" x="1330.439161" xlink:href="#m83297fea48" y="603.865385"/>
     <use style="fill:#ff0000;stroke:#ff0000;" x="1353.851748" xlink:href="#m83297fea48" y="603.865385"/>
     <use style="fill:#ff0000;stroke:#ff0000;" x="1377.264336" xlink:href="#m83297fea48" y="603.865385"/>
     <use style="fill:#ff0000;stroke:#ff0000;" x="1400.676923" xlink:href="#m83297fea48" y="603.865385"/>
     <use style="fill:#ff0000;stroke:#ff0000;" x="1424.08951" xlink:href="#m83297fea48" y="603.865385"/>
     <use style="fill:#ff0000;stroke:#ff0000;" x="1447.502098" xlink:href="#m83297fea48" y="603.865385"/>
     <use style="fill:#ff0000;stroke:#ff0000;" x="1470.914685" xlink:href="#m83297fea48" y="603.865385"/>
     <use style="fill:#ff0000;stroke:#ff0000;" x="1494.327273" xlink:href="#m83297fea48" y="603.865385"/>
    </g>
   </g>
   <g id="patch_3">
    <path d="M 216 630 
L 216 86.4 
" style="fill:none;stroke:#ffffff;stroke-linecap:square;stroke-linejoin:miter;"/>
   </g>
   <g id="patch_4">
    <path d="M 1555.2 630 
L 1555.2 86.4 
" style="fill:none;stroke:#ffffff;stroke-linecap:square;stroke-linejoin:miter;"/>
   </g>
   <g id="patch_5">
    <path d="M 216 630 
L 1555.2 630 
" style="fill:none;stroke:#ffffff;stroke-linecap:square;stroke-linejoin:miter;"/>
   </g>
   <g id="patch_6">
    <path d="M 216 86.4 
L 1555.2 86.4 
" style="fill:none;stroke:#ffffff;stroke-linecap:square;stroke-linejoin:miter;"/>
   </g>
   <g id="text_15">
    <!--   89 -->
    <defs>
     <path d="M 10.984375 1.515625 
L 10.984375 10.5 
Q 14.703125 8.734375 18.5 7.8125 
Q 22.3125 6.890625 25.984375 6.890625 
Q 35.75 6.890625 40.890625 13.453125 
Q 46.046875 20.015625 46.78125 33.40625 
Q 43.953125 29.203125 39.59375 26.953125 
Q 35.25 24.703125 29.984375 24.703125 
Q 19.046875 24.703125 12.671875 31.3125 
Q 6.296875 37.9375 6.296875 49.421875 
Q 6.296875 60.640625 12.9375 67.421875 
Q 19.578125 74.21875 30.609375 74.21875 
Q 43.265625 74.21875 49.921875 64.515625 
Q 56.59375 54.828125 56.59375 36.375 
Q 56.59375 19.140625 48.40625 8.859375 
Q 40.234375 -1.421875 26.421875 -1.421875 
Q 22.703125 -1.421875 18.890625 -0.6875 
Q 15.09375 0.046875 10.984375 1.515625 
z
M 30.609375 32.421875 
Q 37.25 32.421875 41.125 36.953125 
Q 45.015625 41.5 45.015625 49.421875 
Q 45.015625 57.28125 41.125 61.84375 
Q 37.25 66.40625 30.609375 66.40625 
Q 23.96875 66.40625 20.09375 61.84375 
Q 16.21875 57.28125 16.21875 49.421875 
Q 16.21875 41.5 20.09375 36.953125 
Q 23.96875 32.421875 30.609375 32.421875 
z
" id="DejaVuSans-57"/>
    </defs>
    <g transform="translate(1494.327273 138.669231)scale(0.1 -0.1)">
     <use xlink:href="#DejaVuSans-32"/>
     <use x="31.787109" xlink:href="#DejaVuSans-32"/>
     <use x="63.574219" xlink:href="#DejaVuSans-56"/>
     <use x="127.197266" xlink:href="#DejaVuSans-57"/>
    </g>
   </g>
   <g id="text_16">
    <!--   5 -->
    <g transform="translate(1494.327273 577.730769)scale(0.1 -0.1)">
     <use xlink:href="#DejaVuSans-32"/>
     <use x="31.787109" xlink:href="#DejaVuSans-32"/>
     <use x="63.574219" xlink:href="#DejaVuSans-53"/>
    </g>
   </g>
   <g id="text_17">
    <!--   84 -->
    <g transform="translate(1494.327273 164.803846)scale(0.1 -0.1)">
     <use xlink:href="#DejaVuSans-32"/>
     <use x="31.787109" xlink:href="#DejaVuSans-32"/>
     <use x="63.574219" xlink:href="#DejaVuSans-56"/>
     <use x="127.197266" xlink:href="#DejaVuSans-52"/>
    </g>
   </g>
   <g id="text_18">
    <!--   0 -->
    <g transform="translate(1494.327273 603.865385)scale(0.1 -0.1)">
     <use xlink:href="#DejaVuSans-32"/>
     <use x="31.787109" xlink:href="#DejaVuSans-32"/>
     <use x="63.574219" xlink:href="#DejaVuSans-48"/>
    </g>
   </g>
   <g id="text_19">
    <!--   0 -->
    <g transform="translate(1494.327273 603.865385)scale(0.1 -0.1)">
     <use xlink:href="#DejaVuSans-32"/>
     <use x="31.787109" xlink:href="#DejaVuSans-32"/>
     <use x="63.574219" xlink:href="#DejaVuSans-48"/>
    </g>
   </g>
   <g id="text_20">
    <!-- @genicleito | https://genicleito.github.io -->
    <defs>
     <path d="M 37.203125 26.21875 
Q 37.203125 19.234375 40.671875 15.25 
Q 44.140625 11.28125 50.203125 11.28125 
Q 56.203125 11.28125 59.640625 15.28125 
Q 63.09375 19.28125 63.09375 26.21875 
Q 63.09375 33.0625 59.578125 37.078125 
Q 56.0625 41.109375 50.09375 41.109375 
Q 44.1875 41.109375 40.6875 37.109375 
Q 37.203125 33.109375 37.203125 26.21875 
z
M 63.8125 11.625 
Q 60.890625 7.859375 57.109375 6.078125 
Q 53.328125 4.296875 48.296875 4.296875 
Q 39.890625 4.296875 34.640625 10.375 
Q 29.390625 16.453125 29.390625 26.21875 
Q 29.390625 35.984375 34.65625 42.078125 
Q 39.9375 48.1875 48.296875 48.1875 
Q 53.328125 48.1875 57.125 46.359375 
Q 60.9375 44.53125 63.8125 40.828125 
L 63.8125 47.21875 
L 70.796875 47.21875 
L 70.796875 11.28125 
Q 77.9375 12.359375 81.953125 17.796875 
Q 85.984375 23.25 85.984375 31.890625 
Q 85.984375 37.109375 84.4375 41.703125 
Q 82.90625 46.296875 79.78125 50.203125 
Q 74.703125 56.59375 67.40625 59.984375 
Q 60.109375 63.375 51.515625 63.375 
Q 45.515625 63.375 39.984375 61.78125 
Q 34.46875 60.203125 29.78125 57.078125 
Q 22.125 52.09375 17.796875 44.015625 
Q 13.484375 35.9375 13.484375 26.515625 
Q 13.484375 18.75 16.28125 11.953125 
Q 19.09375 5.171875 24.421875 0 
Q 29.546875 -5.078125 36.28125 -7.734375 
Q 43.015625 -10.40625 50.6875 -10.40625 
Q 56.984375 -10.40625 63.0625 -8.28125 
Q 69.140625 -6.15625 74.21875 -2.203125 
L 78.609375 -7.625 
Q 72.515625 -12.359375 65.3125 -14.875 
Q 58.109375 -17.390625 50.6875 -17.390625 
Q 41.65625 -17.390625 33.640625 -14.1875 
Q 25.640625 -10.984375 19.390625 -4.890625 
Q 13.140625 1.21875 9.859375 9.25 
Q 6.59375 17.28125 6.59375 26.515625 
Q 6.59375 35.40625 9.90625 43.453125 
Q 13.234375 51.515625 19.390625 57.625 
Q 25.6875 63.8125 33.9375 67.109375 
Q 42.1875 70.40625 51.421875 70.40625 
Q 61.765625 70.40625 70.625 66.15625 
Q 79.5 61.921875 85.5 54.109375 
Q 89.15625 49.3125 91.078125 43.703125 
Q 93.015625 38.09375 93.015625 32.078125 
Q 93.015625 19.234375 85.25 11.8125 
Q 77.484375 4.390625 63.8125 4.109375 
z
" id="DejaVuSans-64"/>
     <path d="M 45.40625 27.984375 
Q 45.40625 37.75 41.375 43.109375 
Q 37.359375 48.484375 30.078125 48.484375 
Q 22.859375 48.484375 18.828125 43.109375 
Q 14.796875 37.75 14.796875 27.984375 
Q 14.796875 18.265625 18.828125 12.890625 
Q 22.859375 7.515625 30.078125 7.515625 
Q 37.359375 7.515625 41.375 12.890625 
Q 45.40625 18.265625 45.40625 27.984375 
z
M 54.390625 6.78125 
Q 54.390625 -7.171875 48.1875 -13.984375 
Q 42 -20.796875 29.203125 -20.796875 
Q 24.46875 -20.796875 20.265625 -20.09375 
Q 16.0625 -19.390625 12.109375 -17.921875 
L 12.109375 -9.1875 
Q 16.0625 -11.328125 19.921875 -12.34375 
Q 23.78125 -13.375 27.78125 -13.375 
Q 36.625 -13.375 41.015625 -8.765625 
Q 45.40625 -4.15625 45.40625 5.171875 
L 45.40625 9.625 
Q 42.625 4.78125 38.28125 2.390625 
Q 33.9375 0 27.875 0 
Q 17.828125 0 11.671875 7.65625 
Q 5.515625 15.328125 5.515625 27.984375 
Q 5.515625 40.671875 11.671875 48.328125 
Q 17.828125 56 27.875 56 
Q 33.9375 56 38.28125 53.609375 
Q 42.625 51.21875 45.40625 46.390625 
L 45.40625 54.6875 
L 54.390625 54.6875 
z
" id="DejaVuSans-103"/>
     <path d="M 54.890625 33.015625 
L 54.890625 0 
L 45.90625 0 
L 45.90625 32.71875 
Q 45.90625 40.484375 42.875 44.328125 
Q 39.84375 48.1875 33.796875 48.1875 
Q 26.515625 48.1875 22.3125 43.546875 
Q 18.109375 38.921875 18.109375 30.90625 
L 18.109375 0 
L 9.078125 0 
L 9.078125 54.6875 
L 18.109375 54.6875 
L 18.109375 46.1875 
Q 21.34375 51.125 25.703125 53.5625 
Q 30.078125 56 35.796875 56 
Q 45.21875 56 50.046875 50.171875 
Q 54.890625 44.34375 54.890625 33.015625 
z
" id="DejaVuSans-110"/>
     <path d="M 9.421875 54.6875 
L 18.40625 54.6875 
L 18.40625 0 
L 9.421875 0 
z
M 9.421875 75.984375 
L 18.40625 75.984375 
L 18.40625 64.59375 
L 9.421875 64.59375 
z
" id="DejaVuSans-105"/>
     <path d="M 9.421875 75.984375 
L 18.40625 75.984375 
L 18.40625 0 
L 9.421875 0 
z
" id="DejaVuSans-108"/>
     <path d="M 21 76.421875 
L 21 -23.578125 
L 12.703125 -23.578125 
L 12.703125 76.421875 
z
" id="DejaVuSans-124"/>
     <path d="M 54.890625 33.015625 
L 54.890625 0 
L 45.90625 0 
L 45.90625 32.71875 
Q 45.90625 40.484375 42.875 44.328125 
Q 39.84375 48.1875 33.796875 48.1875 
Q 26.515625 48.1875 22.3125 43.546875 
Q 18.109375 38.921875 18.109375 30.90625 
L 18.109375 0 
L 9.078125 0 
L 9.078125 75.984375 
L 18.109375 75.984375 
L 18.109375 46.1875 
Q 21.34375 51.125 25.703125 53.5625 
Q 30.078125 56 35.796875 56 
Q 45.21875 56 50.046875 50.171875 
Q 54.890625 44.34375 54.890625 33.015625 
z
" id="DejaVuSans-104"/>
     <path d="M 18.109375 8.203125 
L 18.109375 -20.796875 
L 9.078125 -20.796875 
L 9.078125 54.6875 
L 18.109375 54.6875 
L 18.109375 46.390625 
Q 20.953125 51.265625 25.265625 53.625 
Q 29.59375 56 35.59375 56 
Q 45.5625 56 51.78125 48.09375 
Q 58.015625 40.1875 58.015625 27.296875 
Q 58.015625 14.40625 51.78125 6.484375 
Q 45.5625 -1.421875 35.59375 -1.421875 
Q 29.59375 -1.421875 25.265625 0.953125 
Q 20.953125 3.328125 18.109375 8.203125 
z
M 48.6875 27.296875 
Q 48.6875 37.203125 44.609375 42.84375 
Q 40.53125 48.484375 33.40625 48.484375 
Q 26.265625 48.484375 22.1875 42.84375 
Q 18.109375 37.203125 18.109375 27.296875 
Q 18.109375 17.390625 22.1875 11.75 
Q 26.265625 6.109375 33.40625 6.109375 
Q 40.53125 6.109375 44.609375 11.75 
Q 48.6875 17.390625 48.6875 27.296875 
z
" id="DejaVuSans-112"/>
     <path d="M 11.71875 12.40625 
L 22.015625 12.40625 
L 22.015625 0 
L 11.71875 0 
z
M 11.71875 51.703125 
L 22.015625 51.703125 
L 22.015625 39.3125 
L 11.71875 39.3125 
z
" id="DejaVuSans-58"/>
     <path d="M 25.390625 72.90625 
L 33.6875 72.90625 
L 8.296875 -9.28125 
L 0 -9.28125 
z
" id="DejaVuSans-47"/>
     <path d="M 10.6875 12.40625 
L 21 12.40625 
L 21 0 
L 10.6875 0 
z
" id="DejaVuSans-46"/>
     <path d="M 8.5 21.578125 
L 8.5 54.6875 
L 17.484375 54.6875 
L 17.484375 21.921875 
Q 17.484375 14.15625 20.5 10.265625 
Q 23.53125 6.390625 29.59375 6.390625 
Q 36.859375 6.390625 41.078125 11.03125 
Q 45.3125 15.671875 45.3125 23.6875 
L 45.3125 54.6875 
L 54.296875 54.6875 
L 54.296875 0 
L 45.3125 0 
L 45.3125 8.40625 
Q 42.046875 3.421875 37.71875 1 
Q 33.40625 -1.421875 27.6875 -1.421875 
Q 18.265625 -1.421875 13.375 4.4375 
Q 8.5 10.296875 8.5 21.578125 
z
M 31.109375 56 
z
" id="DejaVuSans-117"/>
     <path d="M 48.6875 27.296875 
Q 48.6875 37.203125 44.609375 42.84375 
Q 40.53125 48.484375 33.40625 48.484375 
Q 26.265625 48.484375 22.1875 42.84375 
Q 18.109375 37.203125 18.109375 27.296875 
Q 18.109375 17.390625 22.1875 11.75 
Q 26.265625 6.109375 33.40625 6.109375 
Q 40.53125 6.109375 44.609375 11.75 
Q 48.6875 17.390625 48.6875 27.296875 
z
M 18.109375 46.390625 
Q 20.953125 51.265625 25.265625 53.625 
Q 29.59375 56 35.59375 56 
Q 45.5625 56 51.78125 48.09375 
Q 58.015625 40.1875 58.015625 27.296875 
Q 58.015625 14.40625 51.78125 6.484375 
Q 45.5625 -1.421875 35.59375 -1.421875 
Q 29.59375 -1.421875 25.265625 0.953125 
Q 20.953125 3.328125 18.109375 8.203125 
L 18.109375 0 
L 9.078125 0 
L 9.078125 75.984375 
L 18.109375 75.984375 
z
" id="DejaVuSans-98"/>
    </defs>
    <g transform="translate(394.56 194.339151)scale(0.1 -0.1)">
     <use xlink:href="#DejaVuSans-64"/>
     <use x="100" xlink:href="#DejaVuSans-103"/>
     <use x="163.476562" xlink:href="#DejaVuSans-101"/>
     <use x="225" xlink:href="#DejaVuSans-110"/>
     <use x="288.378906" xlink:href="#DejaVuSans-105"/>
     <use x="316.162109" xlink:href="#DejaVuSans-99"/>
     <use x="371.142578" xlink:href="#DejaVuSans-108"/>
     <use x="398.925781" xlink:href="#DejaVuSans-101"/>
     <use x="460.449219" xlink:href="#DejaVuSans-105"/>
     <use x="488.232422" xlink:href="#DejaVuSans-116"/>
     <use x="527.441406" xlink:href="#DejaVuSans-111"/>
     <use x="588.623047" xlink:href="#DejaVuSans-32"/>
     <use x="620.410156" xlink:href="#DejaVuSans-124"/>
     <use x="654.101562" xlink:href="#DejaVuSans-32"/>
     <use x="685.888672" xlink:href="#DejaVuSans-104"/>
     <use x="749.267578" xlink:href="#DejaVuSans-116"/>
     <use x="788.476562" xlink:href="#DejaVuSans-116"/>
     <use x="827.685547" xlink:href="#DejaVuSans-112"/>
     <use x="891.162109" xlink:href="#DejaVuSans-115"/>
     <use x="943.261719" xlink:href="#DejaVuSans-58"/>
     <use x="976.953125" xlink:href="#DejaVuSans-47"/>
     <use x="1010.644531" xlink:href="#DejaVuSans-47"/>
     <use x="1044.335938" xlink:href="#DejaVuSans-103"/>
     <use x="1107.8125" xlink:href="#DejaVuSans-101"/>
     <use x="1169.335938" xlink:href="#DejaVuSans-110"/>
     <use x="1232.714844" xlink:href="#DejaVuSans-105"/>
     <use x="1260.498047" xlink:href="#DejaVuSans-99"/>
     <use x="1315.478516" xlink:href="#DejaVuSans-108"/>
     <use x="1343.261719" xlink:href="#DejaVuSans-101"/>
     <use x="1404.785156" xlink:href="#DejaVuSans-105"/>
     <use x="1432.568359" xlink:href="#DejaVuSans-116"/>
     <use x="1471.777344" xlink:href="#DejaVuSans-111"/>
     <use x="1531.208984" xlink:href="#DejaVuSans-46"/>
     <use x="1562.996094" xlink:href="#DejaVuSans-103"/>
     <use x="1626.472656" xlink:href="#DejaVuSans-105"/>
     <use x="1654.255859" xlink:href="#DejaVuSans-116"/>
     <use x="1693.464844" xlink:href="#DejaVuSans-104"/>
     <use x="1756.84375" xlink:href="#DejaVuSans-117"/>
     <use x="1820.222656" xlink:href="#DejaVuSans-98"/>
     <use x="1883.699219" xlink:href="#DejaVuSans-46"/>
     <use x="1915.486328" xlink:href="#DejaVuSans-105"/>
     <use x="1943.269531" xlink:href="#DejaVuSans-111"/>
    </g>
    <!-- Fonte dos dados: Boletins SESAB -->
    <defs>
     <path d="M 9.8125 72.90625 
L 51.703125 72.90625 
L 51.703125 64.59375 
L 19.671875 64.59375 
L 19.671875 43.109375 
L 48.578125 43.109375 
L 48.578125 34.8125 
L 19.671875 34.8125 
L 19.671875 0 
L 9.8125 0 
z
" id="DejaVuSans-70"/>
     <path d="M 19.671875 34.8125 
L 19.671875 8.109375 
L 35.5 8.109375 
Q 43.453125 8.109375 47.28125 11.40625 
Q 51.125 14.703125 51.125 21.484375 
Q 51.125 28.328125 47.28125 31.5625 
Q 43.453125 34.8125 35.5 34.8125 
z
M 19.671875 64.796875 
L 19.671875 42.828125 
L 34.28125 42.828125 
Q 41.5 42.828125 45.03125 45.53125 
Q 48.578125 48.25 48.578125 53.8125 
Q 48.578125 59.328125 45.03125 62.0625 
Q 41.5 64.796875 34.28125 64.796875 
z
M 9.8125 72.90625 
L 35.015625 72.90625 
Q 46.296875 72.90625 52.390625 68.21875 
Q 58.5 63.53125 58.5 54.890625 
Q 58.5 48.1875 55.375 44.234375 
Q 52.25 40.28125 46.1875 39.3125 
Q 53.46875 37.75 57.5 32.78125 
Q 61.53125 27.828125 61.53125 20.40625 
Q 61.53125 10.640625 54.890625 5.3125 
Q 48.25 0 35.984375 0 
L 9.8125 0 
z
" id="DejaVuSans-66"/>
     <path d="M 53.515625 70.515625 
L 53.515625 60.890625 
Q 47.90625 63.578125 42.921875 64.890625 
Q 37.9375 66.21875 33.296875 66.21875 
Q 25.25 66.21875 20.875 63.09375 
Q 16.5 59.96875 16.5 54.203125 
Q 16.5 49.359375 19.40625 46.890625 
Q 22.3125 44.4375 30.421875 42.921875 
L 36.375 41.703125 
Q 47.40625 39.59375 52.65625 34.296875 
Q 57.90625 29 57.90625 20.125 
Q 57.90625 9.515625 50.796875 4.046875 
Q 43.703125 -1.421875 29.984375 -1.421875 
Q 24.8125 -1.421875 18.96875 -0.25 
Q 13.140625 0.921875 6.890625 3.21875 
L 6.890625 13.375 
Q 12.890625 10.015625 18.65625 8.296875 
Q 24.421875 6.59375 29.984375 6.59375 
Q 38.421875 6.59375 43.015625 9.90625 
Q 47.609375 13.234375 47.609375 19.390625 
Q 47.609375 24.75 44.3125 27.78125 
Q 41.015625 30.8125 33.5 32.328125 
L 27.484375 33.5 
Q 16.453125 35.6875 11.515625 40.375 
Q 6.59375 45.0625 6.59375 53.421875 
Q 6.59375 63.09375 13.40625 68.65625 
Q 20.21875 74.21875 32.171875 74.21875 
Q 37.3125 74.21875 42.625 73.28125 
Q 47.953125 72.359375 53.515625 70.515625 
z
" id="DejaVuSans-83"/>
     <path d="M 9.8125 72.90625 
L 55.90625 72.90625 
L 55.90625 64.59375 
L 19.671875 64.59375 
L 19.671875 43.015625 
L 54.390625 43.015625 
L 54.390625 34.71875 
L 19.671875 34.71875 
L 19.671875 8.296875 
L 56.78125 8.296875 
L 56.78125 0 
L 9.8125 0 
z
" id="DejaVuSans-69"/>
     <path d="M 34.1875 63.1875 
L 20.796875 26.90625 
L 47.609375 26.90625 
z
M 28.609375 72.90625 
L 39.796875 72.90625 
L 67.578125 0 
L 57.328125 0 
L 50.6875 18.703125 
L 17.828125 18.703125 
L 11.1875 0 
L 0.78125 0 
z
" id="DejaVuSans-65"/>
    </defs>
    <g transform="translate(394.56 205.815089)scale(0.1 -0.1)">
     <use xlink:href="#DejaVuSans-70"/>
     <use x="53.894531" xlink:href="#DejaVuSans-111"/>
     <use x="115.076172" xlink:href="#DejaVuSans-110"/>
     <use x="178.455078" xlink:href="#DejaVuSans-116"/>
     <use x="217.664062" xlink:href="#DejaVuSans-101"/>
     <use x="279.1875" xlink:href="#DejaVuSans-32"/>
     <use x="310.974609" xlink:href="#DejaVuSans-100"/>
     <use x="374.451172" xlink:href="#DejaVuSans-111"/>
     <use x="435.632812" xlink:href="#DejaVuSans-115"/>
     <use x="487.732422" xlink:href="#DejaVuSans-32"/>
     <use x="519.519531" xlink:href="#DejaVuSans-100"/>
     <use x="582.996094" xlink:href="#DejaVuSans-97"/>
     <use x="644.275391" xlink:href="#DejaVuSans-100"/>
     <use x="707.751953" xlink:href="#DejaVuSans-111"/>
     <use x="768.933594" xlink:href="#DejaVuSans-115"/>
     <use x="821.033203" xlink:href="#DejaVuSans-58"/>
     <use x="854.724609" xlink:href="#DejaVuSans-32"/>
     <use x="886.511719" xlink:href="#DejaVuSans-66"/>
     <use x="955.115234" xlink:href="#DejaVuSans-111"/>
     <use x="1016.296875" xlink:href="#DejaVuSans-108"/>
     <use x="1044.080078" xlink:href="#DejaVuSans-101"/>
     <use x="1105.603516" xlink:href="#DejaVuSans-116"/>
     <use x="1144.8125" xlink:href="#DejaVuSans-105"/>
     <use x="1172.595703" xlink:href="#DejaVuSans-110"/>
     <use x="1235.974609" xlink:href="#DejaVuSans-115"/>
     <use x="1288.074219" xlink:href="#DejaVuSans-32"/>
     <use x="1319.861328" xlink:href="#DejaVuSans-83"/>
     <use x="1383.337891" xlink:href="#DejaVuSans-69"/>
     <use x="1446.521484" xlink:href="#DejaVuSans-83"/>
     <use x="1511.873047" xlink:href="#DejaVuSans-65"/>
     <use x="1580.28125" xlink:href="#DejaVuSans-66"/>
    </g>
   </g>
   <g id="text_21">
    <!-- Casos acumulados de COVID-19 - Pintadas - BA - Até: 17-07-2020 -->
    <defs>
     <path d="M 64.40625 67.28125 
L 64.40625 56.890625 
Q 59.421875 61.53125 53.78125 63.8125 
Q 48.140625 66.109375 41.796875 66.109375 
Q 29.296875 66.109375 22.65625 58.46875 
Q 16.015625 50.828125 16.015625 36.375 
Q 16.015625 21.96875 22.65625 14.328125 
Q 29.296875 6.6875 41.796875 6.6875 
Q 48.140625 6.6875 53.78125 8.984375 
Q 59.421875 11.28125 64.40625 15.921875 
L 64.40625 5.609375 
Q 59.234375 2.09375 53.4375 0.328125 
Q 47.65625 -1.421875 41.21875 -1.421875 
Q 24.65625 -1.421875 15.125 8.703125 
Q 5.609375 18.84375 5.609375 36.375 
Q 5.609375 53.953125 15.125 64.078125 
Q 24.65625 74.21875 41.21875 74.21875 
Q 47.75 74.21875 53.53125 72.484375 
Q 59.328125 70.75 64.40625 67.28125 
z
" id="DejaVuSans-67"/>
     <path d="M 39.40625 66.21875 
Q 28.65625 66.21875 22.328125 58.203125 
Q 16.015625 50.203125 16.015625 36.375 
Q 16.015625 22.609375 22.328125 14.59375 
Q 28.65625 6.59375 39.40625 6.59375 
Q 50.140625 6.59375 56.421875 14.59375 
Q 62.703125 22.609375 62.703125 36.375 
Q 62.703125 50.203125 56.421875 58.203125 
Q 50.140625 66.21875 39.40625 66.21875 
z
M 39.40625 74.21875 
Q 54.734375 74.21875 63.90625 63.9375 
Q 73.09375 53.65625 73.09375 36.375 
Q 73.09375 19.140625 63.90625 8.859375 
Q 54.734375 -1.421875 39.40625 -1.421875 
Q 24.03125 -1.421875 14.8125 8.828125 
Q 5.609375 19.09375 5.609375 36.375 
Q 5.609375 53.65625 14.8125 63.9375 
Q 24.03125 74.21875 39.40625 74.21875 
z
" id="DejaVuSans-79"/>
     <path d="M 28.609375 0 
L 0.78125 72.90625 
L 11.078125 72.90625 
L 34.1875 11.53125 
L 57.328125 72.90625 
L 67.578125 72.90625 
L 39.796875 0 
z
" id="DejaVuSans-86"/>
     <path d="M 9.8125 72.90625 
L 19.671875 72.90625 
L 19.671875 0 
L 9.8125 0 
z
" id="DejaVuSans-73"/>
     <path d="M 19.671875 64.796875 
L 19.671875 37.40625 
L 32.078125 37.40625 
Q 38.96875 37.40625 42.71875 40.96875 
Q 46.484375 44.53125 46.484375 51.125 
Q 46.484375 57.671875 42.71875 61.234375 
Q 38.96875 64.796875 32.078125 64.796875 
z
M 9.8125 72.90625 
L 32.078125 72.90625 
Q 44.34375 72.90625 50.609375 67.359375 
Q 56.890625 61.8125 56.890625 51.125 
Q 56.890625 40.328125 50.609375 34.8125 
Q 44.34375 29.296875 32.078125 29.296875 
L 19.671875 29.296875 
L 19.671875 0 
L 9.8125 0 
z
" id="DejaVuSans-80"/>
     <path d="M 56.203125 29.59375 
L 56.203125 25.203125 
L 14.890625 25.203125 
Q 15.484375 15.921875 20.484375 11.0625 
Q 25.484375 6.203125 34.421875 6.203125 
Q 39.59375 6.203125 44.453125 7.46875 
Q 49.3125 8.734375 54.109375 11.28125 
L 54.109375 2.78125 
Q 49.265625 0.734375 44.1875 -0.34375 
Q 39.109375 -1.421875 33.890625 -1.421875 
Q 20.796875 -1.421875 13.15625 6.1875 
Q 5.515625 13.8125 5.515625 26.8125 
Q 5.515625 40.234375 12.765625 48.109375 
Q 20.015625 56 32.328125 56 
Q 43.359375 56 49.78125 48.890625 
Q 56.203125 41.796875 56.203125 29.59375 
z
M 47.21875 32.234375 
Q 47.125 39.59375 43.09375 43.984375 
Q 39.0625 48.390625 32.421875 48.390625 
Q 24.90625 48.390625 20.390625 44.140625 
Q 15.875 39.890625 15.1875 32.171875 
z
M 38.53125 79.984375 
L 48.25 79.984375 
L 32.34375 61.625 
L 24.859375 61.625 
z
" id="DejaVuSans-233"/>
    </defs>
    <g transform="translate(649.107 80.4)scale(0.144 -0.144)">
     <use xlink:href="#DejaVuSans-67"/>
     <use x="69.824219" xlink:href="#DejaVuSans-97"/>
     <use x="131.103516" xlink:href="#DejaVuSans-115"/>
     <use x="183.203125" xlink:href="#DejaVuSans-111"/>
     <use x="244.384766" xlink:href="#DejaVuSans-115"/>
     <use x="296.484375" xlink:href="#DejaVuSans-32"/>
     <use x="328.271484" xlink:href="#DejaVuSans-97"/>
     <use x="389.550781" xlink:href="#DejaVuSans-99"/>
     <use x="444.53125" xlink:href="#DejaVuSans-117"/>
     <use x="507.910156" xlink:href="#DejaVuSans-109"/>
     <use x="605.322266" xlink:href="#DejaVuSans-117"/>
     <use x="668.701172" xlink:href="#DejaVuSans-108"/>
     <use x="696.484375" xlink:href="#DejaVuSans-97"/>
     <use x="757.763672" xlink:href="#DejaVuSans-100"/>
     <use x="821.240234" xlink:href="#DejaVuSans-111"/>
     <use x="882.421875" xlink:href="#DejaVuSans-115"/>
     <use x="934.521484" xlink:href="#DejaVuSans-32"/>
     <use x="966.308594" xlink:href="#DejaVuSans-100"/>
     <use x="1029.785156" xlink:href="#DejaVuSans-101"/>
     <use x="1091.308594" xlink:href="#DejaVuSans-32"/>
     <use x="1123.095703" xlink:href="#DejaVuSans-67"/>
     <use x="1192.919922" xlink:href="#DejaVuSans-79"/>
     <use x="1269.880859" xlink:href="#DejaVuSans-86"/>
     <use x="1338.289062" xlink:href="#DejaVuSans-73"/>
     <use x="1367.78125" xlink:href="#DejaVuSans-68"/>
     <use x="1444.783203" xlink:href="#DejaVuSans-45"/>
     <use x="1480.867188" xlink:href="#DejaVuSans-49"/>
     <use x="1544.490234" xlink:href="#DejaVuSans-57"/>
     <use x="1608.113281" xlink:href="#DejaVuSans-32"/>
     <use x="1639.900391" xlink:href="#DejaVuSans-45"/>
     <use x="1675.984375" xlink:href="#DejaVuSans-32"/>
     <use x="1707.771484" xlink:href="#DejaVuSans-80"/>
     <use x="1765.824219" xlink:href="#DejaVuSans-105"/>
     <use x="1793.607422" xlink:href="#DejaVuSans-110"/>
     <use x="1856.986328" xlink:href="#DejaVuSans-116"/>
     <use x="1896.195312" xlink:href="#DejaVuSans-97"/>
     <use x="1957.474609" xlink:href="#DejaVuSans-100"/>
     <use x="2020.951172" xlink:href="#DejaVuSans-97"/>
     <use x="2082.230469" xlink:href="#DejaVuSans-115"/>
     <use x="2134.330078" xlink:href="#DejaVuSans-32"/>
     <use x="2166.117188" xlink:href="#DejaVuSans-45"/>
     <use x="2202.201172" xlink:href="#DejaVuSans-32"/>
     <use x="2233.988281" xlink:href="#DejaVuSans-66"/>
     <use x="2302.591797" xlink:href="#DejaVuSans-65"/>
     <use x="2371" xlink:href="#DejaVuSans-32"/>
     <use x="2402.787109" xlink:href="#DejaVuSans-45"/>
     <use x="2438.871094" xlink:href="#DejaVuSans-32"/>
     <use x="2470.658203" xlink:href="#DejaVuSans-65"/>
     <use x="2537.316406" xlink:href="#DejaVuSans-116"/>
     <use x="2576.525391" xlink:href="#DejaVuSans-233"/>
     <use x="2638.048828" xlink:href="#DejaVuSans-58"/>
     <use x="2671.740234" xlink:href="#DejaVuSans-32"/>
     <use x="2703.527344" xlink:href="#DejaVuSans-49"/>
     <use x="2767.150391" xlink:href="#DejaVuSans-55"/>
     <use x="2830.773438" xlink:href="#DejaVuSans-45"/>
     <use x="2866.857422" xlink:href="#DejaVuSans-48"/>
     <use x="2930.480469" xlink:href="#DejaVuSans-55"/>
     <use x="2994.103516" xlink:href="#DejaVuSans-45"/>
     <use x="3030.1875" xlink:href="#DejaVuSans-50"/>
     <use x="3093.810547" xlink:href="#DejaVuSans-48"/>
     <use x="3157.433594" xlink:href="#DejaVuSans-50"/>
     <use x="3221.056641" xlink:href="#DejaVuSans-48"/>
    </g>
   </g>
   <g id="legend_1">
    <g id="patch_7">
     <path d="M 223 168.190625 
L 469.482813 168.190625 
Q 471.482813 168.190625 471.482813 166.190625 
L 471.482813 93.4 
Q 471.482813 91.4 469.482813 91.4 
L 223 91.4 
Q 221 91.4 221 93.4 
L 221 166.190625 
Q 221 168.190625 223 168.190625 
z
" style="fill:#e5e5e5;opacity:0.8;stroke:#cccccc;stroke-linejoin:miter;stroke-width:0.5;"/>
    </g>
    <g id="line2d_30">
     <path d="M 225 99.498437 
L 245 99.498437 
" style="fill:none;stroke:#0000ff;stroke-linecap:square;stroke-width:1.5;"/>
    </g>
    <g id="line2d_31">
     <g>
      <use style="fill:#0000ff;stroke:#0000ff;" x="235" xlink:href="#m5c9e72e224" y="99.498437"/>
     </g>
    </g>
    <g id="text_22">
     <!-- Total de casos confirmados -->
     <defs>
      <path d="M -0.296875 72.90625 
L 61.375 72.90625 
L 61.375 64.59375 
L 35.5 64.59375 
L 35.5 0 
L 25.59375 0 
L 25.59375 64.59375 
L -0.296875 64.59375 
z
" id="DejaVuSans-84"/>
      <path d="M 37.109375 75.984375 
L 37.109375 68.5 
L 28.515625 68.5 
Q 23.6875 68.5 21.796875 66.546875 
Q 19.921875 64.59375 19.921875 59.515625 
L 19.921875 54.6875 
L 34.71875 54.6875 
L 34.71875 47.703125 
L 19.921875 47.703125 
L 19.921875 0 
L 10.890625 0 
L 10.890625 47.703125 
L 2.296875 47.703125 
L 2.296875 54.6875 
L 10.890625 54.6875 
L 10.890625 58.5 
Q 10.890625 67.625 15.140625 71.796875 
Q 19.390625 75.984375 28.609375 75.984375 
z
" id="DejaVuSans-102"/>
     </defs>
     <g transform="translate(253 102.998437)scale(0.1 -0.1)">
      <use xlink:href="#DejaVuSans-84"/>
      <use x="44.083984" xlink:href="#DejaVuSans-111"/>
      <use x="105.265625" xlink:href="#DejaVuSans-116"/>
      <use x="144.474609" xlink:href="#DejaVuSans-97"/>
      <use x="205.753906" xlink:href="#DejaVuSans-108"/>
      <use x="233.537109" xlink:href="#DejaVuSans-32"/>
      <use x="265.324219" xlink:href="#DejaVuSans-100"/>
      <use x="328.800781" xlink:href="#DejaVuSans-101"/>
      <use x="390.324219" xlink:href="#DejaVuSans-32"/>
      <use x="422.111328" xlink:href="#DejaVuSans-99"/>
      <use x="477.091797" xlink:href="#DejaVuSans-97"/>
      <use x="538.371094" xlink:href="#DejaVuSans-115"/>
      <use x="590.470703" xlink:href="#DejaVuSans-111"/>
      <use x="651.652344" xlink:href="#DejaVuSans-115"/>
      <use x="703.751953" xlink:href="#DejaVuSans-32"/>
      <use x="735.539062" xlink:href="#DejaVuSans-99"/>
      <use x="790.519531" xlink:href="#DejaVuSans-111"/>
      <use x="851.701172" xlink:href="#DejaVuSans-110"/>
      <use x="915.080078" xlink:href="#DejaVuSans-102"/>
      <use x="950.285156" xlink:href="#DejaVuSans-105"/>
      <use x="978.068359" xlink:href="#DejaVuSans-114"/>
      <use x="1017.431641" xlink:href="#DejaVuSans-109"/>
      <use x="1114.84375" xlink:href="#DejaVuSans-97"/>
      <use x="1176.123047" xlink:href="#DejaVuSans-100"/>
      <use x="1239.599609" xlink:href="#DejaVuSans-111"/>
      <use x="1300.78125" xlink:href="#DejaVuSans-115"/>
     </g>
    </g>
    <g id="line2d_32">
     <path d="M 225 114.176562 
L 245 114.176562 
" style="fill:none;stroke:#ffff00;stroke-linecap:square;stroke-width:1.5;"/>
    </g>
    <g id="line2d_33">
     <g>
      <use style="fill:#ffff00;stroke:#ffff00;" x="235" xlink:href="#m510943035e" y="114.176562"/>
     </g>
    </g>
    <g id="text_23">
     <!-- Total de casos ativos -->
     <defs>
      <path d="M 2.984375 54.6875 
L 12.5 54.6875 
L 29.59375 8.796875 
L 46.6875 54.6875 
L 56.203125 54.6875 
L 35.6875 0 
L 23.484375 0 
z
" id="DejaVuSans-118"/>
     </defs>
     <g transform="translate(253 117.676562)scale(0.1 -0.1)">
      <use xlink:href="#DejaVuSans-84"/>
      <use x="44.083984" xlink:href="#DejaVuSans-111"/>
      <use x="105.265625" xlink:href="#DejaVuSans-116"/>
      <use x="144.474609" xlink:href="#DejaVuSans-97"/>
      <use x="205.753906" xlink:href="#DejaVuSans-108"/>
      <use x="233.537109" xlink:href="#DejaVuSans-32"/>
      <use x="265.324219" xlink:href="#DejaVuSans-100"/>
      <use x="328.800781" xlink:href="#DejaVuSans-101"/>
      <use x="390.324219" xlink:href="#DejaVuSans-32"/>
      <use x="422.111328" xlink:href="#DejaVuSans-99"/>
      <use x="477.091797" xlink:href="#DejaVuSans-97"/>
      <use x="538.371094" xlink:href="#DejaVuSans-115"/>
      <use x="590.470703" xlink:href="#DejaVuSans-111"/>
      <use x="651.652344" xlink:href="#DejaVuSans-115"/>
      <use x="703.751953" xlink:href="#DejaVuSans-32"/>
      <use x="735.539062" xlink:href="#DejaVuSans-97"/>
      <use x="796.818359" xlink:href="#DejaVuSans-116"/>
      <use x="836.027344" xlink:href="#DejaVuSans-105"/>
      <use x="863.810547" xlink:href="#DejaVuSans-118"/>
      <use x="922.990234" xlink:href="#DejaVuSans-111"/>
      <use x="984.171875" xlink:href="#DejaVuSans-115"/>
     </g>
    </g>
    <g id="line2d_34">
     <path d="M 225 128.854687 
L 245 128.854687 
" style="fill:none;stroke:#008000;stroke-linecap:square;stroke-width:1.5;"/>
    </g>
    <g id="line2d_35">
     <g>
      <use style="fill:#008000;stroke:#008000;" x="235" xlink:href="#m0dc5f493ab" y="128.854687"/>
     </g>
    </g>
    <g id="text_24">
     <!-- Total de recuperados -->
     <g transform="translate(253 132.354687)scale(0.1 -0.1)">
      <use xlink:href="#DejaVuSans-84"/>
      <use x="44.083984" xlink:href="#DejaVuSans-111"/>
      <use x="105.265625" xlink:href="#DejaVuSans-116"/>
      <use x="144.474609" xlink:href="#DejaVuSans-97"/>
      <use x="205.753906" xlink:href="#DejaVuSans-108"/>
      <use x="233.537109" xlink:href="#DejaVuSans-32"/>
      <use x="265.324219" xlink:href="#DejaVuSans-100"/>
      <use x="328.800781" xlink:href="#DejaVuSans-101"/>
      <use x="390.324219" xlink:href="#DejaVuSans-32"/>
      <use x="422.111328" xlink:href="#DejaVuSans-114"/>
      <use x="460.974609" xlink:href="#DejaVuSans-101"/>
      <use x="522.498047" xlink:href="#DejaVuSans-99"/>
      <use x="577.478516" xlink:href="#DejaVuSans-117"/>
      <use x="640.857422" xlink:href="#DejaVuSans-112"/>
      <use x="704.333984" xlink:href="#DejaVuSans-101"/>
      <use x="765.857422" xlink:href="#DejaVuSans-114"/>
      <use x="806.970703" xlink:href="#DejaVuSans-97"/>
      <use x="868.25" xlink:href="#DejaVuSans-100"/>
      <use x="931.726562" xlink:href="#DejaVuSans-111"/>
      <use x="992.908203" xlink:href="#DejaVuSans-115"/>
     </g>
    </g>
    <g id="line2d_36">
     <path d="M 225 143.532812 
L 245 143.532812 
" style="fill:none;stroke:#ffa500;stroke-linecap:square;stroke-width:1.5;"/>
    </g>
    <g id="line2d_37">
     <g>
      <use style="fill:#ffa500;stroke:#ffa500;" x="235" xlink:href="#m87f84ccdb3" y="143.532812"/>
     </g>
    </g>
    <g id="text_25">
     <!-- Novos casos -->
     <g transform="translate(253 147.032812)scale(0.1 -0.1)">
      <use xlink:href="#DejaVuSans-78"/>
      <use x="74.804688" xlink:href="#DejaVuSans-111"/>
      <use x="135.986328" xlink:href="#DejaVuSans-118"/>
      <use x="195.166016" xlink:href="#DejaVuSans-111"/>
      <use x="256.347656" xlink:href="#DejaVuSans-115"/>
      <use x="308.447266" xlink:href="#DejaVuSans-32"/>
      <use x="340.234375" xlink:href="#DejaVuSans-99"/>
      <use x="395.214844" xlink:href="#DejaVuSans-97"/>
      <use x="456.494141" xlink:href="#DejaVuSans-115"/>
      <use x="508.59375" xlink:href="#DejaVuSans-111"/>
      <use x="569.775391" xlink:href="#DejaVuSans-115"/>
     </g>
    </g>
    <g id="line2d_38">
     <path d="M 225 158.610937 
L 245 158.610937 
" style="fill:none;stroke:#ff0000;stroke-linecap:square;stroke-width:1.5;"/>
    </g>
    <g id="line2d_39">
     <g>
      <use style="fill:#ff0000;stroke:#ff0000;" x="235" xlink:href="#m83297fea48" y="158.610937"/>
     </g>
    </g>
    <g id="text_26">
     <!-- Total de óbitos por município de residência -->
     <defs>
      <path d="M 30.609375 48.390625 
Q 23.390625 48.390625 19.1875 42.75 
Q 14.984375 37.109375 14.984375 27.296875 
Q 14.984375 17.484375 19.15625 11.84375 
Q 23.34375 6.203125 30.609375 6.203125 
Q 37.796875 6.203125 41.984375 11.859375 
Q 46.1875 17.53125 46.1875 27.296875 
Q 46.1875 37.015625 41.984375 42.703125 
Q 37.796875 48.390625 30.609375 48.390625 
z
M 30.609375 56 
Q 42.328125 56 49.015625 48.375 
Q 55.71875 40.765625 55.71875 27.296875 
Q 55.71875 13.875 49.015625 6.21875 
Q 42.328125 -1.421875 30.609375 -1.421875 
Q 18.84375 -1.421875 12.171875 6.21875 
Q 5.515625 13.875 5.515625 27.296875 
Q 5.515625 40.765625 12.171875 48.375 
Q 18.84375 56 30.609375 56 
z
M 37.40625 79.984375 
L 47.125 79.984375 
L 31.21875 61.625 
L 23.734375 61.625 
z
" id="DejaVuSans-243"/>
      <path d="M 20.65625 79.984375 
L 30.375 79.984375 
L 14.46875 61.625 
L 6.984375 61.625 
z
M 9.421875 54.6875 
L 18.40625 54.6875 
L 18.40625 0 
L 9.421875 0 
z
M 13.921875 56 
z
" id="DejaVuSans-237"/>
      <path d="M 56.203125 29.59375 
L 56.203125 25.203125 
L 14.890625 25.203125 
Q 15.484375 15.921875 20.484375 11.0625 
Q 25.484375 6.203125 34.421875 6.203125 
Q 39.59375 6.203125 44.453125 7.46875 
Q 49.3125 8.734375 54.109375 11.28125 
L 54.109375 2.78125 
Q 49.265625 0.734375 44.1875 -0.34375 
Q 39.109375 -1.421875 33.890625 -1.421875 
Q 20.796875 -1.421875 13.15625 6.1875 
Q 5.515625 13.8125 5.515625 26.8125 
Q 5.515625 40.234375 12.765625 48.109375 
Q 20.015625 56 32.328125 56 
Q 43.359375 56 49.78125 48.890625 
Q 56.203125 41.796875 56.203125 29.59375 
z
M 47.21875 32.234375 
Q 47.125 39.59375 43.09375 43.984375 
Q 39.0625 48.390625 32.421875 48.390625 
Q 24.90625 48.390625 20.390625 44.140625 
Q 15.875 39.890625 15.1875 32.171875 
z
M 28.140625 79.984375 
L 35.359375 79.984375 
L 47.328125 61.625 
L 40.546875 61.625 
L 31.75 73.578125 
L 22.96875 61.625 
L 16.171875 61.625 
z
" id="DejaVuSans-234"/>
     </defs>
     <g transform="translate(253 162.110937)scale(0.1 -0.1)">
      <use xlink:href="#DejaVuSans-84"/>
      <use x="44.083984" xlink:href="#DejaVuSans-111"/>
      <use x="105.265625" xlink:href="#DejaVuSans-116"/>
      <use x="144.474609" xlink:href="#DejaVuSans-97"/>
      <use x="205.753906" xlink:href="#DejaVuSans-108"/>
      <use x="233.537109" xlink:href="#DejaVuSans-32"/>
      <use x="265.324219" xlink:href="#DejaVuSans-100"/>
      <use x="328.800781" xlink:href="#DejaVuSans-101"/>
      <use x="390.324219" xlink:href="#DejaVuSans-32"/>
      <use x="422.111328" xlink:href="#DejaVuSans-243"/>
      <use x="483.292969" xlink:href="#DejaVuSans-98"/>
      <use x="546.769531" xlink:href="#DejaVuSans-105"/>
      <use x="574.552734" xlink:href="#DejaVuSans-116"/>
      <use x="613.761719" xlink:href="#DejaVuSans-111"/>
      <use x="674.943359" xlink:href="#DejaVuSans-115"/>
      <use x="727.042969" xlink:href="#DejaVuSans-32"/>
      <use x="758.830078" xlink:href="#DejaVuSans-112"/>
      <use x="822.306641" xlink:href="#DejaVuSans-111"/>
      <use x="883.488281" xlink:href="#DejaVuSans-114"/>
      <use x="924.601562" xlink:href="#DejaVuSans-32"/>
      <use x="956.388672" xlink:href="#DejaVuSans-109"/>
      <use x="1053.800781" xlink:href="#DejaVuSans-117"/>
      <use x="1117.179688" xlink:href="#DejaVuSans-110"/>
      <use x="1180.558594" xlink:href="#DejaVuSans-105"/>
      <use x="1208.341797" xlink:href="#DejaVuSans-99"/>
      <use x="1263.322266" xlink:href="#DejaVuSans-237"/>
      <use x="1291.105469" xlink:href="#DejaVuSans-112"/>
      <use x="1354.582031" xlink:href="#DejaVuSans-105"/>
      <use x="1382.365234" xlink:href="#DejaVuSans-111"/>
      <use x="1443.546875" xlink:href="#DejaVuSans-32"/>
      <use x="1475.333984" xlink:href="#DejaVuSans-100"/>
      <use x="1538.810547" xlink:href="#DejaVuSans-101"/>
      <use x="1600.333984" xlink:href="#DejaVuSans-32"/>
      <use x="1632.121094" xlink:href="#DejaVuSans-114"/>
      <use x="1670.984375" xlink:href="#DejaVuSans-101"/>
      <use x="1732.507812" xlink:href="#DejaVuSans-115"/>
      <use x="1784.607422" xlink:href="#DejaVuSans-105"/>
      <use x="1812.390625" xlink:href="#DejaVuSans-100"/>
      <use x="1875.867188" xlink:href="#DejaVuSans-234"/>
      <use x="1937.390625" xlink:href="#DejaVuSans-110"/>
      <use x="2000.769531" xlink:href="#DejaVuSans-99"/>
      <use x="2055.75" xlink:href="#DejaVuSans-105"/>
      <use x="2083.533203" xlink:href="#DejaVuSans-97"/>
     </g>
    </g>
   </g>
  </g>
 </g>
 <defs>
  <clipPath id="p1e07df5ade">
   <rect height="543.6" width="1339.2" x="216" y="86.4"/>
  </clipPath>
 </defs>
</svg>
